<svg  fill="none" xmlns="http://www.w3.org/2000/svg">

<symbol  viewBox="0 0 64 27" id="logo">
<path d="M11.366 15.5817C11.0096 15.1577 10.6198 14.7294 10.1966 14.2964C9.773 13.8638 9.37369 13.4354 8.99834 13.0111C8.623 12.5871 8.29101 12.1587 8.00221 11.7257C7.7135 11.2932 7.53026 10.8604 7.4536 10.4275C7.39579 10.1334 7.48242 9.75692 7.7135 9.29805C7.94449 8.83963 8.26201 8.35028 8.66636 7.83101C9.07061 7.31165 9.53259 6.78836 10.0522 6.26003C10.572 5.73226 11.0917 5.23888 11.6114 4.78001C12.1311 4.32159 12.6265 3.92319 13.0983 3.58565C13.5698 3.2481 14.1235 3.01889 14.4317 2.89756C13.5844 4.36908 12.6697 5.71075 12.0156 6.92213C11.7269 7.4414 11.4526 7.96076 11.1927 8.48003C10.9328 8.9993 10.7019 9.47565 10.4997 9.90817C10.2976 10.3411 10.1338 10.7221 10.0089 11.0507C9.88351 11.3797 9.83072 11.6049 9.85012 11.7257C9.88845 12.0028 10.0617 12.284 10.3699 12.5697C10.6775 12.8552 11.024 13.1194 11.4094 13.3616C11.8519 13.6561 12.3428 13.9419 12.8819 14.2186C12.9779 13.7167 13.1656 13.1239 13.4449 12.4399C13.7238 11.7562 14.0463 11.0378 14.4122 10.2847C14.7776 9.53165 15.1628 8.77466 15.5671 8.01282C15.9713 7.25126 16.3418 6.55467 16.6788 5.92258C17.0153 5.29086 17.2946 4.7456 17.5161 4.28682C17.7371 3.8284 18.012 3.52086 18.012 3.36504C18.012 3.22669 17.901 2.95411 17.68 2.5472C17.4585 2.14066 17.1554 1.73824 16.7704 1.33985C16.3852 0.941819 15.7737 0.599789 15.2639 0.314215C14.7537 0.028549 14.2101 -0.0623114 13.6326 0.0415421C13.2284 0.110991 12.6797 0.336083 11.9868 0.716636C11.2938 1.09755 10.5526 1.57793 9.76348 2.15768C8.97392 2.7378 8.18993 3.39111 7.41024 4.11809C6.63064 4.84516 5.94719 5.57661 5.36025 6.31219C4.77286 7.04813 4.33028 7.77071 4.03205 8.4803C3.73337 9.19035 3.68058 9.82198 3.87324 10.3757C4.0465 10.895 4.29643 11.3754 4.62393 11.8168C4.95106 12.2582 5.31195 12.6697 5.70669 13.0502C6.10097 13.4311 6.51016 13.7948 6.93381 14.1408C7.357 14.4873 7.73737 14.8334 8.0743 15.1794C8.41095 15.526 8.69508 15.872 8.92607 16.2181C9.15715 16.5646 9.28202 16.9281 9.30142 17.3087C9.32035 17.6203 9.21936 18.0012 8.99825 18.4511C8.77678 18.9015 8.48303 19.3819 8.11766 19.8922C7.75174 20.403 7.34254 20.9138 6.89054 21.4242C6.43799 21.935 5.9954 22.3937 5.56233 22.8004C5.12917 23.2073 4.7295 23.5448 4.36403 23.813C3.9982 24.0816 3.71891 24.2244 3.52671 24.2413C3.39187 24.1376 3.36296 23.9168 3.44017 23.5793C3.51683 23.2418 3.66613 22.8481 3.8876 22.3979C4.10871 21.9479 4.38297 21.4591 4.71056 20.9307C5.03769 20.403 5.37919 19.8882 5.7356 19.3858C6.09155 18.884 6.44293 18.421 6.78945 17.9967C7.13598 17.5727 7.44354 17.2306 7.71341 16.971L4.5952 14.8156C4.20989 15.0233 3.83006 15.3349 3.45472 15.7505C3.07937 16.1659 2.72296 16.6293 2.38632 17.1397C2.0493 17.6505 1.73177 18.1783 1.43345 18.7236C1.13486 19.2688 0.874966 19.784 0.653858 20.2685C0.432384 20.7533 0.26406 21.1771 0.148611 21.5409C0.0331629 21.9044 -0.0152303 22.147 0.00416357 22.2678C0.0809157 22.9429 0.288028 23.5749 0.62495 24.1633C0.961507 24.7516 1.35625 25.2579 1.80871 25.6823C2.2608 26.1061 2.72772 26.4394 3.20909 26.6819C3.69 26.924 4.11365 27.028 4.47957 26.9936C4.74889 26.9761 5.12423 26.8548 5.60561 26.63C6.08652 26.4048 6.61619 26.1018 7.19371 25.7213C7.77113 25.3403 8.3631 24.8859 8.96943 24.3581C9.57577 23.8303 10.1338 23.246 10.6441 22.6055C11.1539 21.9652 11.5775 21.2728 11.9146 20.5283C12.2511 19.7842 12.4487 19.0138 12.5064 18.2174C12.5254 17.7674 12.4293 17.3216 12.2177 16.8802C12.0057 16.4386 11.722 16.0061 11.366 15.5817Z" fill="#141414"/>
<path d="M63.1679 17.7373C63.1485 17.6683 63.0618 17.5945 62.908 17.5165C62.7536 17.4387 62.5904 17.3697 62.4172 17.3088C62.2439 17.2485 62.0802 17.1964 61.9264 17.153C61.7721 17.1101 61.6854 17.0881 61.6665 17.0881C61.6471 17.0881 61.5411 17.2224 61.349 17.4906C61.1563 17.7591 60.9109 18.1008 60.6126 18.5162C60.3139 18.9317 59.9963 19.386 59.6598 19.8794C59.3228 20.3727 58.9957 20.8401 58.678 21.2814C58.3604 21.7229 58.0811 22.1039 57.8408 22.4239C57.5998 22.7445 57.441 22.9393 57.3643 23.0081C57.3255 23.043 57.3932 22.8392 57.5664 22.3979C57.7397 21.9564 57.985 21.3898 58.3027 20.6972C58.6204 20.0051 58.9763 19.2301 59.3711 18.3733C59.7653 17.5165 60.1696 16.69 60.5837 15.8937C60.9974 15.0977 61.3871 14.3835 61.753 13.7515C62.1184 13.1197 62.4266 12.6739 62.677 12.4142C62.7347 12.3622 62.5998 12.2628 62.2727 12.1155C61.9452 11.9687 61.5798 11.817 61.1756 11.6611C60.6747 11.4709 60.1167 11.2717 59.5009 11.0639C59.3465 11.1159 59.1255 11.3844 58.8368 11.8688C58.5481 12.3537 58.2205 12.9684 57.8551 13.7124C57.8935 13.3838 57.903 13.0938 57.8839 12.8426C57.8646 12.5918 57.8068 12.4231 57.7107 12.3362C57.422 12.0595 56.9934 11.8299 56.4258 11.6481C55.8578 11.4664 55.3236 11.3756 54.8234 11.3756C54.3226 11.393 53.8272 11.6311 53.3364 12.0895C52.8456 12.5484 52.3641 13.1371 51.8927 13.8552C51.4209 14.5737 50.9831 15.3658 50.579 16.2311C50.418 16.576 50.2677 16.9154 50.1236 17.2519C50.0846 17.2944 50.0408 17.3451 49.9872 17.4126C49.8428 17.5943 49.6597 17.837 49.4386 18.1396C49.2171 18.4427 48.9667 18.7888 48.6879 19.1782C48.4087 19.5676 48.1248 19.9615 47.8361 20.3597C47.1622 21.3118 46.4114 22.3765 45.5839 23.5534C45.2759 23.4151 45.0642 23.1683 44.9488 22.8133C44.8333 22.4587 44.7945 22.0129 44.8333 21.4762C45.1604 21.0262 45.5885 20.4464 46.1182 19.7364C46.6474 19.0269 47.2248 18.2348 47.8506 17.3605C48.4759 16.4867 49.1255 15.5605 49.7995 14.5822C50.4731 13.6044 51.1133 12.6179 51.7196 11.6222C52.3261 10.6271 52.8746 9.64034 53.3654 8.66219C53.8562 7.68441 54.246 6.77114 54.5348 5.92284C54.5926 5.73252 54.5926 5.48144 54.5348 5.16979C54.477 4.85813 54.3516 4.55106 54.1595 4.24801C53.9668 3.94532 53.7119 3.68125 53.3944 3.45607C53.0767 3.23134 52.6965 3.1015 52.2539 3.06655C51.888 3.04953 51.4693 3.22686 50.9979 3.5989C50.526 3.97131 50.0207 4.4817 49.4821 5.1309C48.9429 5.78001 48.3943 6.53745 47.8363 7.40277C47.2778 8.26856 46.7292 9.18585 46.1905 10.1551C45.6515 11.1248 45.1411 12.1155 44.6603 13.1282C44.1789 14.1408 43.7457 15.1146 43.361 16.0494C43.2048 16.4282 43.0638 16.7935 42.9315 17.1511C42.8846 17.176 42.8034 17.2606 42.6826 17.4126C42.5382 17.5943 42.355 17.837 42.134 18.1396C41.9126 18.4427 41.6622 18.7888 41.3833 19.1782C41.1041 19.5676 40.8203 19.9615 40.5316 20.3597C39.8576 21.3118 39.1068 22.3765 38.2794 23.5534C37.9714 23.4151 37.7597 23.1683 37.6443 22.8133C37.5288 22.4587 37.4899 22.0129 37.5288 21.4762C37.8559 21.0262 38.284 20.4464 38.8137 19.7364C39.3429 19.0269 39.9203 18.2348 40.546 17.3605C41.1714 16.4867 41.821 15.5605 42.495 14.5822C43.1686 13.6044 43.8088 12.6179 44.4151 11.6222C45.0215 10.6271 45.57 9.64034 46.0608 8.66219C46.5517 7.68441 46.9415 6.77114 47.2303 5.92284C47.288 5.73252 47.288 5.48144 47.2303 5.16979C47.1725 4.85813 47.0471 4.55106 46.855 4.24801C46.6623 3.94532 46.4074 3.68125 46.0898 3.45607C45.7721 3.23134 45.3919 3.1015 44.9493 3.06655C44.5834 3.04953 44.1648 3.22686 43.6934 3.5989C43.2215 3.97131 42.7162 4.4817 42.1776 5.1309C41.6384 5.78001 41.0898 6.53745 40.5317 7.40277C39.9733 8.26856 39.4247 9.18585 38.886 10.1551C38.3469 11.1248 37.8365 12.1155 37.3557 13.1282C36.8744 14.1408 36.4412 15.1146 36.0564 16.0494C35.9608 16.2815 35.8697 16.5094 35.7831 16.7334C35.3905 17.3022 34.9672 17.8745 34.512 18.4512C34.0401 19.0484 33.5687 19.6242 33.0971 20.1779C32.6253 20.7322 32.1682 21.2514 31.7257 21.7358C31.2826 22.2207 30.8739 22.6361 30.4985 22.9821C30.1232 23.3286 29.8056 23.5884 29.5457 23.7611C29.2858 23.9344 29.1077 23.9947 29.0115 23.9428C28.819 23.6487 28.7179 23.2767 28.7084 22.8263C28.6985 22.3764 28.7517 21.8746 28.8672 21.3204C29.3291 21.0781 29.911 20.7147 30.614 20.2298C31.3165 19.7454 32.0144 19.1957 32.7073 18.5812C33.4004 17.9669 34.0355 17.3217 34.613 16.6467C35.1904 15.9716 35.5947 15.3224 35.8256 14.6992C35.9601 14.3357 35.9362 13.9162 35.7534 13.4399C35.5703 12.964 35.3104 12.5271 34.9739 12.1287C34.6368 11.7307 34.2566 11.4105 33.8334 11.1679C33.4097 10.9257 33.025 10.8653 32.6784 10.9862C31.7734 11.2979 30.8882 11.8605 30.022 12.674C29.1558 13.4879 28.3906 14.4181 27.7266 15.4653C27.4066 15.9701 27.1198 16.4872 26.8646 17.0159C26.83 17.0429 26.7276 17.175 26.5573 17.4128C26.3646 17.6813 26.1192 18.0229 25.821 18.4384C25.5223 18.8538 25.2047 19.3082 24.8682 19.8016C24.5312 20.295 24.2041 20.7582 23.8864 21.1908C23.5689 21.6236 23.2895 22.0001 23.0492 22.3202C22.8082 22.6408 22.6494 22.8355 22.5728 22.9045C22.534 22.9394 22.6061 22.7357 22.7893 22.2943C22.972 21.853 23.2268 21.2776 23.5544 20.5676C23.8622 19.7716 24.1751 18.9967 24.4928 18.2438C24.8105 17.4907 25.1181 16.7986 25.4168 16.1665C25.7149 15.5349 26.0037 14.9766 26.283 14.4916C26.5618 14.0072 26.8267 13.6438 27.077 13.401C27.1536 13.3146 27.0671 13.1674 26.8171 12.9596C26.5667 12.7519 26.254 12.5357 25.8787 12.3105C25.5033 12.0857 25.1181 11.891 24.7237 11.7263C24.329 11.5619 24.0164 11.4796 23.7853 11.4796C23.5928 11.4796 23.2513 11.7133 22.7604 12.1807C22.2695 12.6481 21.7209 13.2367 21.1146 13.9464C20.5082 14.6564 19.8919 15.431 19.2667 16.2703C18.6409 17.1102 18.1068 17.9106 17.6642 18.6721C17.9529 17.8243 18.2656 16.9544 18.6026 16.0627C18.9392 15.1713 19.329 14.2579 19.772 13.3232C20.2146 12.3885 20.715 11.4277 21.2735 10.4411C21.8315 9.45432 22.4667 8.42475 23.1791 7.35117C23.2369 7.29919 23.102 7.19534 22.7749 7.03952C22.4473 6.88369 22.0819 6.72786 21.6777 6.57213C21.2735 6.41639 20.715 6.22607 20.0031 6.00098C18.9636 7.66273 18.0396 9.26848 17.2311 10.8175C16.4227 12.3669 15.7153 13.8904 15.109 15.3875C14.5026 16.8849 14.0019 18.3735 13.6075 19.8535C13.2127 21.3336 12.929 22.8354 12.7557 24.3584C12.7363 24.4624 12.8757 24.5967 13.1744 24.761C13.4726 24.9256 13.8047 25.0945 14.1706 25.2674C14.5937 25.4581 15.0751 25.6568 15.6142 25.8645L15.8453 24.9558C16.1724 24.3326 16.5671 23.5321 17.029 22.554C17.491 21.5763 18.0202 20.5591 18.6171 19.5031C19.2136 18.4474 19.8681 17.4218 20.5806 16.4262C21.2925 15.4311 22.0721 14.5956 22.9193 13.9206C22.7844 14.0938 22.5917 14.3923 22.3419 14.8164C22.0915 15.2408 21.8222 15.7382 21.5334 16.3094C21.2447 16.8807 20.951 17.4998 20.6528 18.1659C20.3542 18.8325 20.0897 19.4817 19.8588 20.1134C19.6278 20.7454 19.4496 21.3338 19.3247 21.879C19.1993 22.4243 19.1659 22.8703 19.2236 23.2163C19.2814 23.6317 19.459 23.9912 19.7577 24.2938C20.0559 24.597 20.383 24.8521 20.7394 25.0599C21.0953 25.2676 21.4368 25.4192 21.7644 25.5142C22.0916 25.6096 22.313 25.6485 22.4285 25.6311C22.5245 25.614 22.7461 25.4148 23.0925 25.0338C23.4391 24.6533 23.8334 24.173 24.2764 23.5928C24.7128 23.0211 25.173 22.4069 25.6564 21.7508C25.6583 21.8152 25.6585 21.8802 25.6623 21.9439C25.6813 22.3423 25.744 22.7618 25.85 23.2033C25.9556 23.6446 26.0955 24.056 26.2687 24.4367C26.4419 24.8176 26.6535 25.1467 26.9039 25.4234C27.1538 25.7001 27.4425 25.8647 27.7701 25.9168C28.2321 26.0031 28.7181 25.9428 29.2283 25.7349C29.7381 25.5272 30.2628 25.2375 30.8019 24.8651C31.3405 24.4931 31.8747 24.0516 32.4043 23.541C32.9336 23.0305 33.4388 22.4982 33.9202 21.944C34.165 21.6679 34.4092 21.3811 34.6532 21.0873C34.6382 21.6521 34.6894 22.1897 34.815 22.6971C34.9689 23.3201 35.2093 23.8613 35.5369 24.3198C35.864 24.7788 36.2682 25.1337 36.7495 25.3843C37.2304 25.6356 37.7601 25.7435 38.3376 25.7089C38.4721 25.7089 38.7129 25.5187 39.0595 25.1377C39.4059 24.7571 39.8052 24.2809 40.2577 23.7097C40.7098 23.1384 41.1717 22.5241 41.6436 21.8661C41.7502 21.7174 41.8548 21.5714 41.9585 21.4267C41.9692 21.8677 42.0197 22.2924 42.1198 22.6971C42.2737 23.3201 42.5142 23.8613 42.8417 24.3198C43.1688 24.7788 43.573 25.1337 44.0544 25.3843C44.5353 25.6356 45.065 25.7435 45.6425 25.7089C45.777 25.7089 46.0178 25.5187 46.3644 25.1377C46.7108 24.7571 47.1101 24.2809 47.5626 23.7097C47.8806 23.3078 48.2037 22.8835 48.5314 22.439C48.531 22.4555 48.5298 22.4735 48.5298 22.4893C48.5109 23.1643 48.5731 23.7098 48.7175 24.1251C48.8619 24.5405 49.035 24.8651 49.2372 25.0989C49.4393 25.3325 49.6414 25.4883 49.8435 25.5662C50.0457 25.6441 50.2044 25.6741 50.32 25.6571C50.4932 25.6401 50.7531 25.4928 51.0997 25.2156C51.4461 24.9389 51.826 24.5926 52.2402 24.177C52.6538 23.7616 53.0869 23.2987 53.5394 22.7878C53.9915 22.2775 54.4201 21.7797 54.8244 21.2948C54.6895 21.7453 54.5885 22.1477 54.5212 22.5023C54.4535 22.8572 54.4296 23.1299 54.449 23.3201C54.4874 23.7185 54.6317 24.0731 54.8821 24.3848C55.1321 24.6963 55.4113 24.952 55.7194 25.1506C56.0272 25.3498 56.3302 25.4972 56.629 25.5921C56.9272 25.6869 57.1343 25.726 57.2497 25.7089C57.3459 25.6914 57.5624 25.4927 57.8994 25.1118C58.236 24.7311 58.6259 24.2507 59.0689 23.6706C59.5115 23.091 59.9784 22.4678 60.4692 21.8011C60.96 21.135 61.4076 20.5074 61.8118 19.9186C62.216 19.3305 62.5481 18.8326 62.808 18.4257C63.0668 18.0189 63.1868 17.7892 63.1679 17.7373ZM47.3164 14.167C47.9515 12.8603 48.6058 11.6399 49.2797 10.5059C49.9533 9.37242 50.603 8.3897 51.2287 7.55887C51.854 6.72795 52.3882 6.19158 52.8312 5.94901C52.7346 6.26066 52.5325 6.72796 52.2248 7.35117C51.9168 7.97429 51.5508 8.67985 51.1277 9.46731C50.704 10.2552 50.2371 11.0772 49.7273 11.934C49.217 12.7908 48.7117 13.6133 48.2114 14.4007C47.7108 15.1886 47.2442 15.8938 46.8111 16.5169C46.378 17.1401 46.0171 17.6075 45.7283 17.9192C46.1515 16.7247 46.6812 15.4743 47.3164 14.167ZM40.0116 14.167C40.6467 12.8603 41.3009 11.6399 41.9749 10.5059C42.6486 9.37242 43.2982 8.3897 43.9239 7.55887C44.5492 6.72795 45.0834 6.19158 45.5264 5.94901C45.4298 6.26066 45.2277 6.72796 44.92 7.35117C44.612 7.97429 44.246 8.67985 43.8228 9.46731C43.3992 10.2552 42.9323 11.0772 42.4225 11.934C41.9122 12.7908 41.4069 13.6133 40.9066 14.4007C40.406 15.1886 39.9394 15.8938 39.5063 16.5169C39.0732 17.1401 38.7123 17.6075 38.4235 17.9192C38.8467 16.7247 39.3764 15.4743 40.0116 14.167ZM30.1514 17.6594C30.5651 16.8115 30.9982 16.0411 31.4507 15.3485C31.9027 14.6563 32.3503 14.085 32.7933 13.6346C33.2359 13.1847 33.6208 12.951 33.9483 12.9335C33.9289 13.4703 33.7507 14.0675 33.4142 14.7251C33.0771 15.3833 32.6729 16.041 32.2015 16.6986C31.7297 17.3566 31.2199 17.9883 30.6712 18.5941C30.1226 19.2002 29.6174 19.7194 29.1554 20.152C29.4052 19.3386 29.7373 18.5078 30.1514 17.6594ZM56.96 14.6474C56.9023 14.9764 56.8202 15.3356 56.7146 15.7251C56.6086 16.1145 56.5075 16.4999 56.4115 16.8805L55.8051 18.4125C55.6896 18.5856 55.5163 18.8194 55.2854 19.1136C55.0543 19.4081 54.799 19.7327 54.5202 20.0872C54.2409 20.4422 53.9571 20.8056 53.6684 21.1778C53.3797 21.5503 53.1004 21.8918 52.8311 22.2034C52.5613 22.5151 52.3259 22.7746 52.1237 22.9823C51.9216 23.1902 51.7817 23.3029 51.7051 23.3198C51.6086 23.3373 51.6424 23.0907 51.8062 22.5798C51.9695 22.0695 52.2055 21.4244 52.5136 20.6455C52.8212 19.8665 53.1821 19.027 53.5963 18.1269C54.0101 17.2269 54.4193 16.4046 54.8235 15.6601C55.2277 14.916 55.6125 14.3144 55.9784 13.8555C56.3439 13.3971 56.6326 13.2283 56.8446 13.3491C56.9601 13.4185 57.0225 13.5698 57.0324 13.8035C57.0417 14.0371 57.0178 14.3188 56.96 14.6474Z" fill="#141414"/>
</symbol>

<symbol  viewBox="0 0 17 17" id="search">
<path d="M10.0547 1.32031C10.4583 1.48958 10.8424 1.69792 11.207 1.94531C11.5716 2.17969 11.9036 2.45312 12.2031 2.76562C12.5156 3.0651 12.7891 3.39714 13.0234 3.76172C13.2708 4.1263 13.4792 4.51042 13.6484 4.91406C13.8307 5.33073 13.9609 5.76042 14.0391 6.20312C14.1302 6.63281 14.1758 7.08203 14.1758 7.55078C14.1758 7.96745 14.1367 8.3776 14.0586 8.78125C13.9935 9.17188 13.8893 9.55599 13.7461 9.93359C13.6029 10.3112 13.4271 10.6693 13.2188 11.0078C13.0234 11.3464 12.8021 11.6589 12.5547 11.9453L16.6367 16.0273C16.6888 16.0794 16.7279 16.138 16.7539 16.2031C16.7799 16.2682 16.793 16.3333 16.793 16.3984C16.793 16.4766 16.7799 16.5482 16.7539 16.6133C16.7279 16.6654 16.6888 16.724 16.6367 16.7891C16.6107 16.8021 16.5846 16.8216 16.5586 16.8477C16.5326 16.8607 16.5 16.8737 16.4609 16.8867C16.4349 16.8997 16.4023 16.9128 16.3633 16.9258C16.3372 16.9258 16.3047 16.9258 16.2656 16.9258C16.2396 16.9258 16.207 16.9258 16.168 16.9258C16.1419 16.9128 16.1094 16.8997 16.0703 16.8867C16.0443 16.8737 16.0117 16.8607 15.9727 16.8477C15.9466 16.8216 15.9206 16.8021 15.8945 16.7891L11.8125 12.6875C11.513 12.9479 11.194 13.1758 10.8555 13.3711C10.5299 13.5664 10.1784 13.7357 9.80078 13.8789C9.42318 14.0352 9.03255 14.1523 8.62891 14.2305C8.23828 14.2956 7.83464 14.3281 7.41797 14.3281C6.94922 14.3281 6.49349 14.2826 6.05078 14.1914C5.60807 14.1003 5.1849 13.9701 4.78125 13.8008C4.36458 13.6185 3.97396 13.4102 3.60938 13.1758C3.25781 12.9284 2.92578 12.6549 2.61328 12.3555C2.3138 12.043 2.04036 11.7109 1.79297 11.3594C1.55859 10.9948 1.35026 10.6042 1.16797 10.1875C0.998698 9.78385 0.86849 9.36068 0.777344 8.91797C0.686198 8.47526 0.640625 8.01953 0.640625 7.55078C0.640625 7.08203 0.686198 6.63281 0.777344 6.20312C0.86849 5.76042 0.998698 5.33073 1.16797 4.91406C1.35026 4.51042 1.55859 4.1263 1.79297 3.76172C2.04036 3.39714 2.3138 3.0651 2.61328 2.76562C2.92578 2.45312 3.25781 2.17969 3.60938 1.94531C3.97396 1.69792 4.36458 1.48958 4.78125 1.32031C5.1849 1.13802 5.60807 1.00781 6.05078 0.929688C6.49349 0.838542 6.94922 0.792969 7.41797 0.792969C7.88672 0.792969 8.33594 0.838542 8.76562 0.929688C9.20833 1.00781 9.63802 1.13802 10.0547 1.32031ZM2.125 9.77734C2.28125 10.1289 2.45703 10.4609 2.65234 10.7734C2.86068 11.0729 3.09505 11.3529 3.35547 11.6133C3.61589 11.8737 3.89583 12.1081 4.19531 12.3164C4.50781 12.5117 4.83984 12.6875 5.19141 12.8438C5.52995 12.987 5.88151 13.0977 6.24609 13.1758C6.6237 13.2539 7.01432 13.293 7.41797 13.293C7.80859 13.293 8.1862 13.2539 8.55078 13.1758C8.92839 13.0977 9.29297 12.987 9.64453 12.8438C9.99609 12.6875 10.3216 12.5117 10.6211 12.3164C10.9206 12.1081 11.2005 11.8737 11.4609 11.6133C11.7214 11.3529 11.9557 11.0729 12.1641 10.7734C12.3724 10.4609 12.5482 10.1289 12.6914 9.77734C12.8477 9.4388 12.9583 9.08724 13.0234 8.72266C13.1016 8.34505 13.1406 7.95443 13.1406 7.55078C13.1406 7.16016 13.1016 6.78255 13.0234 6.41797C12.9583 6.04036 12.8477 5.67578 12.6914 5.32422C12.5482 4.97266 12.3724 4.64714 12.1641 4.34766C11.9557 4.04818 11.7214 3.76823 11.4609 3.50781C11.2005 3.2474 10.9206 3.01302 10.6211 2.80469C10.3216 2.59635 9.99609 2.42057 9.64453 2.27734C9.29297 2.12109 8.92839 2.01042 8.55078 1.94531C8.1862 1.86719 7.80859 1.82812 7.41797 1.82812C7.01432 1.82812 6.6237 1.86719 6.24609 1.94531C5.88151 2.01042 5.52995 2.12109 5.19141 2.27734C4.83984 2.42057 4.50781 2.59635 4.19531 2.80469C3.89583 3.01302 3.61589 3.2474 3.35547 3.50781C3.09505 3.76823 2.86068 4.04818 2.65234 4.34766C2.45703 4.64714 2.28125 4.97266 2.125 5.32422C1.98177 5.67578 1.87109 6.04036 1.79297 6.41797C1.71484 6.78255 1.67578 7.16016 1.67578 7.55078C1.67578 7.95443 1.71484 8.34505 1.79297 8.72266C1.87109 9.08724 1.98177 9.4388 2.125 9.77734Z" fill="#141414"/>
</symbol>

<symbol  viewBox="0 0 18 18" id="question">
<path d="M9.11719 4.19141C8.80469 4.19141 8.50521 4.23698 8.21875 4.32812C7.93229 4.40625 7.65885 4.52995 7.39844 4.69922C7.13802 4.86849 6.91016 5.07031 6.71484 5.30469C6.53255 5.52604 6.3763 5.77995 6.24609 6.06641C6.22005 6.13151 6.20703 6.19661 6.20703 6.26172C6.20703 6.32682 6.22005 6.39193 6.24609 6.45703C6.27214 6.52214 6.30469 6.58073 6.34375 6.63281C6.39583 6.6849 6.45443 6.72396 6.51953 6.75C6.58464 6.77604 6.64974 6.79557 6.71484 6.80859C6.77995 6.80859 6.84505 6.79557 6.91016 6.76953C6.97526 6.74349 7.03385 6.70443 7.08594 6.65234C7.13802 6.60026 7.17708 6.54167 7.20312 6.47656C7.29427 6.29427 7.39844 6.13151 7.51562 5.98828C7.64583 5.83203 7.80208 5.69531 7.98438 5.57812C8.15365 5.46094 8.32943 5.3763 8.51172 5.32422C8.70703 5.25911 8.90885 5.22656 9.11719 5.22656C9.40365 5.22656 9.67057 5.27865 9.91797 5.38281C10.1654 5.48698 10.3867 5.64323 10.582 5.85156C10.7904 6.04688 10.9466 6.26823 11.0508 6.51562C11.1549 6.76302 11.207 7.02995 11.207 7.31641C11.207 7.60286 11.1549 7.86979 11.0508 8.11719C10.9466 8.36458 10.7904 8.58594 10.582 8.78125C10.3867 8.98958 10.1654 9.14583 9.91797 9.25C9.67057 9.35417 9.40365 9.40625 9.11719 9.40625C9.05208 9.40625 8.98698 9.41927 8.92188 9.44531C8.85677 9.47135 8.79818 9.51042 8.74609 9.5625C8.69401 9.61458 8.65495 9.67318 8.62891 9.73828C8.60286 9.79036 8.58984 9.84896 8.58984 9.91406V11.4766C8.58984 11.5547 8.60286 11.6263 8.62891 11.6914C8.65495 11.7435 8.69401 11.7956 8.74609 11.8477C8.79818 11.8997 8.85677 11.9388 8.92188 11.9648C8.98698 11.9909 9.05208 12.0039 9.11719 12.0039C9.18229 12.0039 9.2474 11.9909 9.3125 11.9648C9.3776 11.9388 9.4362 11.8997 9.48828 11.8477C9.54036 11.7956 9.57943 11.7435 9.60547 11.6914C9.63151 11.6263 9.64453 11.5547 9.64453 11.4766V10.3828C10.0091 10.3307 10.3411 10.2201 10.6406 10.0508C10.9531 9.86849 11.2396 9.63411 11.5 9.34766C11.7474 9.04818 11.9297 8.73568 12.0469 8.41016C12.1771 8.07161 12.2422 7.70703 12.2422 7.31641C12.2422 6.88672 12.1641 6.48958 12.0078 6.125C11.8516 5.76042 11.6237 5.42188 11.3242 5.10938C11.0117 4.8099 10.6732 4.58203 10.3086 4.42578C9.94401 4.26953 9.54688 4.19141 9.11719 4.19141ZM16.793 5.85156C16.5716 5.34375 16.3112 4.86849 16.0117 4.42578C15.7122 3.98307 15.3737 3.57292 14.9961 3.19531C14.6185 2.81771 14.2083 2.48568 13.7656 2.19922C13.3359 1.89974 12.8672 1.63932 12.3594 1.41797C11.8516 1.19661 11.3242 1.03385 10.7773 0.929688C10.2435 0.8125 9.6901 0.753906 9.11719 0.753906C8.54427 0.753906 7.98438 0.8125 7.4375 0.929688C6.90365 1.03385 6.38281 1.19661 5.875 1.41797C5.36719 1.63932 4.89193 1.89974 4.44922 2.19922C4.01953 2.48568 3.61589 2.81771 3.23828 3.19531C2.86068 3.57292 2.52214 3.98307 2.22266 4.42578C1.92318 4.86849 1.66276 5.34375 1.44141 5.85156C1.22005 6.35938 1.05078 6.88021 0.933594 7.41406C0.829427 7.94792 0.777344 8.50781 0.777344 9.09375C0.777344 9.66667 0.829427 10.2266 0.933594 10.7734C1.05078 11.3073 1.22005 11.8216 1.44141 12.3164C1.66276 12.8242 1.92318 13.2995 2.22266 13.7422C2.52214 14.1849 2.86068 14.5951 3.23828 14.9727C3.61589 15.3503 4.01953 15.6888 4.44922 15.9883C4.89193 16.2878 5.36719 16.5482 5.875 16.7695C6.38281 16.9779 6.90365 17.1406 7.4375 17.2578C7.98438 17.362 8.54427 17.4141 9.11719 17.4141C9.6901 17.4141 10.2435 17.362 10.7773 17.2578C11.3242 17.1406 11.8516 16.9779 12.3594 16.7695C12.8672 16.5482 13.3359 16.2878 13.7656 15.9883C14.2083 15.6888 14.6185 15.3503 14.9961 14.9727C15.3737 14.5951 15.7122 14.1849 16.0117 13.7422C16.3112 13.2995 16.5716 12.8242 16.793 12.3164C17.0143 11.8216 17.1771 11.3073 17.2812 10.7734C17.3984 10.2266 17.457 9.66667 17.457 9.09375C17.457 8.50781 17.3984 7.94792 17.2812 7.41406C17.1771 6.88021 17.0143 6.35938 16.793 5.85156ZM15.8359 11.9258C15.6406 12.3685 15.4128 12.7852 15.1523 13.1758C14.8919 13.5534 14.599 13.9049 14.2734 14.2305C13.9349 14.569 13.5703 14.8685 13.1797 15.1289C12.8021 15.3893 12.3919 15.6107 11.9492 15.793C11.5065 15.9883 11.0508 16.138 10.582 16.2422C10.1133 16.3333 9.625 16.3789 9.11719 16.3789C8.60938 16.3789 8.11458 16.3333 7.63281 16.2422C7.16406 16.138 6.70833 15.9883 6.26562 15.793C5.82292 15.6107 5.40625 15.3893 5.01562 15.1289C4.63802 14.8685 4.28646 14.569 3.96094 14.2305C3.63542 13.9049 3.34245 13.5534 3.08203 13.1758C2.82161 12.7852 2.59375 12.3685 2.39844 11.9258C2.20312 11.4831 2.0599 11.0273 1.96875 10.5586C1.8776 10.0768 1.83203 9.58854 1.83203 9.09375C1.83203 8.58594 1.8776 8.09766 1.96875 7.62891C2.0599 7.14714 2.20312 6.6849 2.39844 6.24219C2.59375 5.79948 2.82161 5.38932 3.08203 5.01172C3.34245 4.62109 3.63542 4.26302 3.96094 3.9375C4.28646 3.61198 4.64453 3.31901 5.03516 3.05859C5.42578 2.79818 5.83594 2.57031 6.26562 2.375C6.70833 2.17969 7.16406 2.03646 7.63281 1.94531C8.11458 1.84115 8.60938 1.78906 9.11719 1.78906C9.625 1.78906 10.1133 1.84115 10.582 1.94531C11.0508 2.03646 11.5065 2.17969 11.9492 2.375C12.3919 2.57031 12.8021 2.79818 13.1797 3.05859C13.5703 3.31901 13.9349 3.61198 14.2734 3.9375C14.599 4.26302 14.8919 4.62109 15.1523 5.01172C15.4128 5.38932 15.6406 5.79948 15.8359 6.24219C16.0182 6.6849 16.1549 7.14714 16.2461 7.62891C16.3503 8.09766 16.4023 8.58594 16.4023 9.09375C16.4023 9.58854 16.3503 10.0768 16.2461 10.5586C16.1549 11.0273 16.0182 11.4831 15.8359 11.9258ZM9.74219 13.7812C9.74219 13.9505 9.67708 14.1003 9.54688 14.2305C9.42969 14.3477 9.28646 14.4062 9.11719 14.4062C8.94792 14.4062 8.79818 14.3477 8.66797 14.2305C8.55078 14.1003 8.49219 13.9505 8.49219 13.7812C8.49219 13.612 8.55078 13.4688 8.66797 13.3516C8.79818 13.2214 8.94792 13.1562 9.11719 13.1562C9.28646 13.1562 9.42969 13.2214 9.54688 13.3516C9.67708 13.4688 9.74219 13.612 9.74219 13.7812Z" fill="#141414"/>
</symbol>

<symbol  viewBox="0 0 18 18" id="person">
<path d="M1.35938 17.7266H0.304688V17.1992C0.304688 16.7695 0.33724 16.3464 0.402344 15.9297C0.480469 15.513 0.584635 15.1094 0.714844 14.7188C0.858073 14.3281 1.02083 13.957 1.20312 13.6055C1.39844 13.2409 1.61328 12.8958 1.84766 12.5703C2.09505 12.2448 2.36198 11.9388 2.64844 11.6523C2.9349 11.3659 3.24089 11.1055 3.56641 10.8711C3.89193 10.6367 4.23698 10.4284 4.60156 10.2461C4.96615 10.0508 5.34375 9.88802 5.73438 9.75781C5.39583 9.5625 5.08333 9.32812 4.79688 9.05469C4.52344 8.76823 4.28255 8.44922 4.07422 8.09766C3.86589 7.74609 3.70312 7.375 3.58594 6.98438C3.48177 6.58073 3.42969 6.16406 3.42969 5.73438C3.42969 5.40885 3.46224 5.09635 3.52734 4.79688C3.59245 4.4974 3.68359 4.20443 3.80078 3.91797C3.91797 3.63151 4.0612 3.36458 4.23047 3.11719C4.39974 2.86979 4.59505 2.64193 4.81641 2.43359C5.02474 2.21224 5.2526 2.02344 5.5 1.86719C5.7474 1.69792 6.01432 1.54818 6.30078 1.41797C6.58724 1.30078 6.88021 1.20964 7.17969 1.14453C7.47917 1.07943 7.79167 1.04688 8.11719 1.04688C8.44271 1.04688 8.75521 1.07943 9.05469 1.14453C9.36719 1.20964 9.66667 1.30078 9.95312 1.41797C10.2266 1.54818 10.487 1.69792 10.7344 1.86719C10.9818 2.02344 11.2161 2.21224 11.4375 2.43359C11.6458 2.64193 11.8346 2.86979 12.0039 3.11719C12.1732 3.36458 12.3229 3.63151 12.4531 3.91797C12.5703 4.20443 12.6549 4.4974 12.707 4.79688C12.7721 5.09635 12.8047 5.40885 12.8047 5.73438C12.8047 6.16406 12.7526 6.58073 12.6484 6.98438C12.5443 7.375 12.388 7.74609 12.1797 8.09766C11.9714 8.44922 11.724 8.76823 11.4375 9.05469C11.1641 9.32812 10.8581 9.5625 10.5195 9.75781C10.9102 9.88802 11.2812 10.0508 11.6328 10.2461C11.9974 10.4284 12.349 10.6367 12.6875 10.8711C13.013 11.1055 13.319 11.3659 13.6055 11.6523C13.8919 11.9388 14.1589 12.2448 14.4062 12.5703C14.6406 12.8958 14.849 13.2409 15.0312 13.6055C15.2266 13.957 15.3893 14.3281 15.5195 14.7188C15.6628 15.1094 15.7669 15.513 15.832 15.9297C15.8971 16.3464 15.9297 16.7695 15.9297 17.1992V17.7266H14.8945V17.1992C14.8945 16.7305 14.849 16.2812 14.7578 15.8516C14.6667 15.4089 14.5365 14.9792 14.3672 14.5625C14.1849 14.1458 13.9701 13.7617 13.7227 13.4102C13.4883 13.0456 13.2214 12.7135 12.9219 12.4141C12.6094 12.1016 12.2708 11.8281 11.9062 11.5938C11.5547 11.3464 11.1706 11.138 10.7539 10.9688C10.3503 10.7865 9.92708 10.6497 9.48438 10.5586C9.04167 10.4674 8.58594 10.4219 8.11719 10.4219C7.64844 10.4219 7.19271 10.4674 6.75 10.5586C6.32031 10.6497 5.89714 10.7865 5.48047 10.9688C5.07682 11.138 4.69271 11.3464 4.32812 11.5938C3.96354 11.8281 3.63151 12.1016 3.33203 12.4141C3.01953 12.7135 2.73958 13.0456 2.49219 13.4102C2.25781 13.7617 2.05599 14.1458 1.88672 14.5625C1.70443 14.9792 1.56771 15.4089 1.47656 15.8516C1.39844 16.2812 1.35938 16.7305 1.35938 17.1992V17.7266ZM4.75781 7.16016C4.86198 7.38151 4.97917 7.58984 5.10938 7.78516C5.23958 7.98047 5.38281 8.16276 5.53906 8.33203C5.70833 8.48828 5.89062 8.63151 6.08594 8.76172C6.28125 8.89193 6.48958 9.00911 6.71094 9.11328C6.93229 9.20443 7.16016 9.27604 7.39453 9.32812C7.62891 9.36719 7.86979 9.38672 8.11719 9.38672C8.36458 9.38672 8.60547 9.36719 8.83984 9.32812C9.08724 9.27604 9.32161 9.20443 9.54297 9.11328C9.76432 9.00911 9.97266 8.89193 10.168 8.76172C10.3633 8.63151 10.5391 8.48828 10.6953 8.33203C10.8646 8.16276 11.0143 7.98047 11.1445 7.78516C11.2747 7.58984 11.3854 7.38151 11.4766 7.16016C11.5807 6.9388 11.6523 6.71094 11.6914 6.47656C11.7435 6.24219 11.7695 5.99479 11.7695 5.73438C11.7695 5.48698 11.7435 5.24609 11.6914 5.01172C11.6523 4.77734 11.5807 4.54948 11.4766 4.32812C11.3854 4.10677 11.2747 3.89844 11.1445 3.70312C11.0143 3.50781 10.8646 3.32552 10.6953 3.15625C10.5391 3 10.3633 2.85677 10.168 2.72656C9.97266 2.59635 9.76432 2.47917 9.54297 2.375C9.32161 2.28385 9.08724 2.21875 8.83984 2.17969C8.60547 2.1276 8.36458 2.10156 8.11719 2.10156C7.86979 2.10156 7.62891 2.1276 7.39453 2.17969C7.16016 2.21875 6.93229 2.28385 6.71094 2.375C6.48958 2.47917 6.28125 2.59635 6.08594 2.72656C5.89062 2.85677 5.70833 3 5.53906 3.15625C5.38281 3.32552 5.23958 3.50781 5.10938 3.70312C4.97917 3.89844 4.86198 4.10677 4.75781 4.32812C4.66667 4.54948 4.59505 4.77734 4.54297 5.01172C4.50391 5.24609 4.48438 5.48698 4.48438 5.73438C4.48438 5.99479 4.50391 6.24219 4.54297 6.47656C4.59505 6.71094 4.66667 6.9388 4.75781 7.16016Z" fill="#141414"/>
</symbol>

<symbol  viewBox="0 0 82 18" id="heart">
<path d="M49.1102 4.75781C48.993 4.45833 48.8432 4.17839 48.6609 3.91797C48.4917 3.65755 48.2898 3.41667 48.0555 3.19531C47.8211 2.96094 47.5737 2.75911 47.3133 2.58984C47.0529 2.40755 46.7794 2.25781 46.493 2.14062C46.1935 2.02344 45.894 1.9388 45.5945 1.88672C45.2951 1.82161 44.9891 1.78906 44.6766 1.78906C44.3771 1.78906 44.0776 1.82161 43.7781 1.88672C43.4786 1.9388 43.1792 2.02344 42.8797 2.14062C42.5802 2.25781 42.3003 2.40755 42.0398 2.58984C41.7794 2.75911 41.532 2.96094 41.2977 3.19531C41.2846 3.20833 41.2716 3.22786 41.2586 3.25391C41.2456 3.26693 41.2326 3.27995 41.2195 3.29297C41.2065 3.30599 41.1935 3.31901 41.1805 3.33203C41.1674 3.34505 41.1479 3.35807 41.1219 3.37109C41.1089 3.35807 41.0958 3.34505 41.0828 3.33203C41.0698 3.31901 41.0568 3.30599 41.0438 3.29297C41.0307 3.27995 41.0177 3.26693 41.0047 3.25391C40.9917 3.22786 40.9786 3.20833 40.9656 3.19531C40.7313 2.96094 40.4839 2.75911 40.2234 2.58984C39.963 2.40755 39.6831 2.25781 39.3836 2.14062C39.0841 2.02344 38.7846 1.9388 38.4852 1.88672C38.1857 1.82161 37.8797 1.78906 37.5672 1.78906C37.2677 1.78906 36.9682 1.82161 36.6688 1.88672C36.3693 1.9388 36.0698 2.02344 35.7703 2.14062C35.4839 2.25781 35.2039 2.40755 34.9305 2.58984C34.6701 2.75911 34.4227 2.96094 34.1883 3.19531C33.9669 3.41667 33.7651 3.65755 33.5828 3.91797C33.4135 4.17839 33.2703 4.45833 33.1531 4.75781C33.0359 5.04427 32.9448 5.34375 32.8797 5.65625C32.8276 5.95573 32.8016 6.26172 32.8016 6.57422C32.8016 6.89974 32.8276 7.21875 32.8797 7.53125C32.9448 7.83073 33.0359 8.1237 33.1531 8.41016C33.2703 8.69661 33.4135 8.97005 33.5828 9.23047C33.7651 9.49089 33.9669 9.73828 34.1883 9.97266L40.7508 16.5156C40.7508 16.5286 40.7508 16.5352 40.7508 16.5352C40.7638 16.5352 40.7703 16.5352 40.7703 16.5352L41.1219 16.8867L41.493 16.5352C41.506 16.5221 41.5125 16.5156 41.5125 16.5156L48.0555 9.97266C48.2898 9.73828 48.4917 9.49089 48.6609 9.23047C48.8432 8.97005 48.993 8.69661 49.1102 8.41016C49.2273 8.1237 49.312 7.83073 49.3641 7.53125C49.4292 7.21875 49.4617 6.89974 49.4617 6.57422C49.4617 6.26172 49.4292 5.95573 49.3641 5.65625C49.312 5.34375 49.2273 5.04427 49.1102 4.75781ZM48.1336 8.01953C48.0424 8.24089 47.9253 8.45573 47.782 8.66406C47.6518 8.85938 47.5021 9.04167 47.3328 9.21094L41.1219 15.4219L34.9305 9.21094C34.7612 9.04167 34.6049 8.85938 34.4617 8.66406C34.3315 8.45573 34.2208 8.24089 34.1297 8.01953C34.0255 7.78516 33.9474 7.55078 33.8953 7.31641C33.8563 7.06901 33.8367 6.82161 33.8367 6.57422C33.8367 6.32682 33.8563 6.08594 33.8953 5.85156C33.9474 5.60417 34.0255 5.36979 34.1297 5.14844C34.2208 4.91406 34.3315 4.69922 34.4617 4.50391C34.6049 4.29557 34.7612 4.10026 34.9305 3.91797C35.1128 3.7487 35.3081 3.59896 35.5164 3.46875C35.7247 3.32552 35.9461 3.20833 36.1805 3.11719C36.4018 3.02604 36.6297 2.96094 36.8641 2.92188C37.0984 2.86979 37.3393 2.84375 37.5867 2.84375C37.8211 2.84375 38.0555 2.86979 38.2898 2.92188C38.5242 2.96094 38.7586 3.02604 38.993 3.11719C39.2273 3.20833 39.4422 3.32552 39.6375 3.46875C39.8458 3.59896 40.0411 3.7487 40.2234 3.91797C40.2625 3.97005 40.3016 4.02214 40.3406 4.07422C40.3927 4.11328 40.4383 4.15885 40.4773 4.21094C40.5164 4.25 40.549 4.29557 40.575 4.34766C40.6141 4.39974 40.6531 4.45182 40.6922 4.50391C40.7443 4.58203 40.8029 4.64062 40.868 4.67969C40.9461 4.70573 41.0307 4.71875 41.1219 4.71875C41.226 4.71875 41.3107 4.70573 41.3758 4.67969C41.4539 4.64062 41.519 4.58203 41.5711 4.50391C41.5971 4.45182 41.6297 4.39974 41.6688 4.34766C41.7078 4.29557 41.7469 4.25 41.7859 4.21094C41.825 4.15885 41.8641 4.11328 41.9031 4.07422C41.9552 4.02214 42.0008 3.97005 42.0398 3.91797C42.2221 3.7487 42.4109 3.59896 42.6063 3.46875C42.8146 3.32552 43.0359 3.20833 43.2703 3.11719C43.5047 3.02604 43.7391 2.96094 43.9734 2.92188C44.2078 2.86979 44.4422 2.84375 44.6766 2.84375C44.9109 2.84375 45.1453 2.86979 45.3797 2.92188C45.6141 2.96094 45.8484 3.02604 46.0828 3.11719C46.3172 3.20833 46.5385 3.32552 46.7469 3.46875C46.9552 3.59896 47.1505 3.7487 47.3328 3.91797C47.5021 4.10026 47.6518 4.29557 47.782 4.50391C47.9253 4.69922 48.0424 4.91406 48.1336 5.14844C48.2247 5.36979 48.2964 5.60417 48.3484 5.85156C48.4005 6.08594 48.4266 6.32682 48.4266 6.57422C48.4266 6.82161 48.4005 7.06901 48.3484 7.31641C48.2964 7.55078 48.2247 7.78516 48.1336 8.01953Z" fill="#141414"/>
</symbol>

<symbol  viewBox="0 0 82 18" id="bag">
<path d="M80.9625 17.4922C80.9104 17.5443 80.8518 17.5833 80.7867 17.6094C80.7346 17.6354 80.676 17.6484 80.6109 17.6484H68.1109C68.0328 17.6484 67.9612 17.6354 67.8961 17.6094C67.844 17.5833 67.7919 17.5443 67.7398 17.4922C67.6878 17.4401 67.6487 17.388 67.6227 17.3359C67.5966 17.2708 67.5836 17.2057 67.5836 17.1406V4.64062C67.5836 4.5625 67.5966 4.4974 67.6227 4.44531C67.6487 4.38021 67.6878 4.32161 67.7398 4.26953C67.7919 4.21745 67.844 4.17839 67.8961 4.15234C67.9612 4.1263 68.0328 4.11328 68.1109 4.11328H71.2359C71.2359 3.68359 71.3076 3.28646 71.4508 2.92188C71.607 2.54427 71.8414 2.20573 72.1539 1.90625C72.4534 1.59375 72.7854 1.36589 73.15 1.22266C73.5276 1.06641 73.9313 0.988281 74.3609 0.988281C74.7906 0.988281 75.1878 1.06641 75.5523 1.22266C75.9169 1.36589 76.2555 1.59375 76.568 1.90625C76.8674 2.21875 77.0953 2.55729 77.2516 2.92188C77.4078 3.28646 77.4859 3.68359 77.4859 4.11328H80.6109C80.676 4.11328 80.7346 4.1263 80.7867 4.15234C80.8518 4.17839 80.9104 4.21745 80.9625 4.26953C81.0146 4.32161 81.0536 4.38021 81.0797 4.44531C81.1057 4.4974 81.1188 4.5625 81.1188 4.64062V17.1406C81.1188 17.2057 81.1057 17.2708 81.0797 17.3359C81.0536 17.388 81.0146 17.4401 80.9625 17.4922ZM80.0836 5.14844H77.4859V7.23828C77.4859 7.30339 77.4729 7.36849 77.4469 7.43359C77.4208 7.4987 77.3818 7.55729 77.3297 7.60938C77.2776 7.66146 77.219 7.70052 77.1539 7.72656C77.0888 7.7526 77.0237 7.76562 76.9586 7.76562C76.8935 7.76562 76.8284 7.7526 76.7633 7.72656C76.6982 7.70052 76.6396 7.66146 76.5875 7.60938C76.5354 7.55729 76.4964 7.4987 76.4703 7.43359C76.4443 7.36849 76.4313 7.30339 76.4313 7.23828V5.14844H72.2711V7.23828C72.2711 7.30339 72.2581 7.36849 72.232 7.43359C72.206 7.4987 72.1669 7.55729 72.1148 7.60938C72.0628 7.66146 72.0042 7.70052 71.9391 7.72656C71.887 7.7526 71.8219 7.76562 71.7438 7.76562C71.6786 7.76562 71.6135 7.7526 71.5484 7.72656C71.4964 7.70052 71.4443 7.66146 71.3922 7.60938C71.3401 7.55729 71.301 7.4987 71.275 7.43359C71.249 7.36849 71.2359 7.30339 71.2359 7.23828V5.14844H68.6188V16.6133H80.0836V5.14844ZM72.8766 2.62891C72.6813 2.83724 72.5315 3.0651 72.4273 3.3125C72.3232 3.5599 72.2711 3.82682 72.2711 4.11328H76.4313C76.4313 3.82682 76.3792 3.5599 76.275 3.3125C76.1839 3.0651 76.0341 2.83724 75.8258 2.62891C75.6174 2.43359 75.3896 2.28385 75.1422 2.17969C74.9078 2.07552 74.6474 2.02344 74.3609 2.02344C74.0615 2.02344 73.788 2.07552 73.5406 2.17969C73.3063 2.28385 73.0849 2.43359 72.8766 2.62891Z" fill="#141414"/>
</symbol>


<symbol id="icon-heart" viewBox="0 0 37 32">
<path d="M27 0c-2.476 0-4.856 0.921-6.704 2.595-0.702 0.635-1.303 1.357-1.796 2.154-0.493-0.797-1.094-1.519-1.796-2.155-1.848-1.673-4.228-2.594-6.704-2.594-5.514 0-10 4.486-10 10 0 3.722 1.158 6.66 3.871 9.825 3.942 4.6 13.919 11.62 14.342 11.917 0.086 0.061 0.187 0.091 0.287 0.091s0.201-0.030 0.287-0.091c0.423-0.297 10.4-7.317 14.343-11.917 2.712-3.165 3.87-6.103 3.87-9.825 0-5.514-4.486-10-10-10zM32.371 19.175c-3.495 4.076-12.18 10.341-13.871 11.545-1.691-1.204-10.376-7.469-13.87-11.545-2.545-2.969-3.63-5.713-3.63-9.175 0-4.963 4.038-9 9-9 2.227 0 4.37 0.829 6.032 2.335 0.838 0.76 1.518 1.656 2.020 2.664 0.17 0.34 0.726 0.34 0.896 0 0.502-1.008 1.182-1.904 2.020-2.663 1.662-1.507 3.805-2.336 6.032-2.336 4.962 0 9 4.037 9 9 0 3.462-1.085 6.206-3.629 9.175z"></path>
</symbol>

<symbol id="icon-shopping-bag1" viewBox="0 0 24 24">
<path d="M19 5h-14l1.5-2h11zM21.794 5.392l-2.994-3.992c-0.196-0.261-0.494-0.399-0.8-0.4h-12c-0.326 0-0.616 0.156-0.8 0.4l-2.994 3.992c-0.043 0.056-0.081 0.117-0.111 0.182-0.065 0.137-0.096 0.283-0.095 0.426v14c0 0.828 0.337 1.58 0.879 2.121s1.293 0.879 2.121 0.879h14c0.828 0 1.58-0.337 2.121-0.879s0.879-1.293 0.879-2.121v-14c0-0.219-0.071-0.422-0.189-0.585-0.004-0.005-0.007-0.010-0.011-0.015zM4 7h16v13c0 0.276-0.111 0.525-0.293 0.707s-0.431 0.293-0.707 0.293h-14c-0.276 0-0.525-0.111-0.707-0.293s-0.293-0.431-0.293-0.707zM15 10c0 0.829-0.335 1.577-0.879 2.121s-1.292 0.879-2.121 0.879-1.577-0.335-2.121-0.879-0.879-1.292-0.879-2.121c0-0.552-0.448-1-1-1s-1 0.448-1 1c0 1.38 0.561 2.632 1.464 3.536s2.156 1.464 3.536 1.464 2.632-0.561 3.536-1.464 1.464-2.156 1.464-3.536c0-0.552-0.448-1-1-1s-1 0.448-1 1z"></path>
</symbol>

<symbol id="icon-heart-o" viewBox="0 0 28 28">
<path d="M26 9.312c0-4.391-2.969-5.313-5.469-5.313-2.328 0-4.953 2.516-5.766 3.484-0.375 0.453-1.156 0.453-1.531 0-0.812-0.969-3.437-3.484-5.766-3.484-2.5 0-5.469 0.922-5.469 5.313 0 2.859 2.891 5.516 2.922 5.547l9.078 8.75 9.063-8.734c0.047-0.047 2.938-2.703 2.938-5.563zM28 9.312c0 3.75-3.437 6.891-3.578 7.031l-9.734 9.375c-0.187 0.187-0.438 0.281-0.688 0.281s-0.5-0.094-0.688-0.281l-9.75-9.406c-0.125-0.109-3.563-3.25-3.563-7 0-4.578 2.797-7.313 7.469-7.313 2.734 0 5.297 2.156 6.531 3.375 1.234-1.219 3.797-3.375 6.531-3.375 4.672 0 7.469 2.734 7.469 7.313z"></path>
</symbol>

<symbol id="caret-down" viewBox="0 0 8 6">
<path d="M3.82422 4.98828L0.699219 1.86328C0.647135 1.8112 0.608073 1.7526 0.582031 1.6875C0.55599 1.6224 0.542969 1.55729 0.542969 1.49219C0.542969 1.42708 0.55599 1.36198 0.582031 1.29688C0.608073 1.23177 0.647135 1.17318 0.699219 1.12109C0.751302 1.06901 0.803385 1.02995 0.855469 1.00391C0.920573 0.977865 0.992188 0.964844 1.07031 0.964844C1.13542 0.964844 1.20052 0.977865 1.26562 1.00391C1.33073 1.02995 1.38932 1.06901 1.44141 1.12109L4.19531 3.875L6.94922 1.12109C7.0013 1.06901 7.05339 1.02995 7.10547 1.00391C7.17057 0.977865 7.24219 0.964844 7.32031 0.964844C7.38542 0.964844 7.45052 0.977865 7.51562 1.00391C7.58073 1.02995 7.63932 1.06901 7.69141 1.12109C7.74349 1.17318 7.78255 1.23177 7.80859 1.29688C7.83464 1.36198 7.84766 1.42708 7.84766 1.49219C7.84766 1.55729 7.83464 1.6224 7.80859 1.6875C7.78255 1.7526 7.74349 1.8112 7.69141 1.86328L4.56641 4.98828C4.54036 5.01432 4.50781 5.03385 4.46875 5.04688C4.44271 5.0599 4.41667 5.07943 4.39062 5.10547C4.35156 5.11849 4.3125 5.13151 4.27344 5.14453C4.2474 5.14453 4.22135 5.14453 4.19531 5.14453C4.15625 5.14453 4.11719 5.14453 4.07812 5.14453C4.05208 5.13151 4.02604 5.11849 4 5.10547C3.96094 5.07943 3.92839 5.0599 3.90234 5.04688C3.8763 5.03385 3.85026 5.01432 3.82422 4.98828Z" fill="#858585"/>
</symbol>


<symbol  id="brand1" viewBox="0 0 80 80">
<rect x="0.5" y="0.5" width="79" height="79" fill="white" stroke="#E6E6E6"/>
<path d="M13.0396 41.9476C13.0396 41.5525 12.8752 41.2244 12.5303 40.9393C12.1831 40.6715 11.8119 40.535 11.3576 40.5095C10.7846 40.485 10.2843 40.4903 9.75728 40.4967L8.97314 40.5031V43.3406H11.3658C12.3042 43.3406 13.0396 42.7285 13.0396 41.9476ZM11.3658 42.892H10.4099V41.8419C11.1469 41.8383 11.7775 41.8171 12.5385 41.8497C12.5392 41.8497 12.54 41.85 12.5404 41.85C12.5439 41.8823 12.5508 41.9132 12.5508 41.9476C12.5505 42.4771 12.0304 42.892 11.3658 42.892Z" fill="#231F20"/>
<path d="M9.91426 38.6948C10.5136 38.6367 11.1589 38.2788 11.1589 37.6294C11.1589 37.079 10.623 36.6311 9.96414 36.6311H8.97314V38.754L9.23259 38.7395C9.43056 38.7282 9.65133 38.7136 9.91426 38.6948ZM10.4099 38.0664V37.9713H10.5236C10.4896 38.0064 10.4517 38.0384 10.4099 38.0664Z" fill="#231F20"/>
<path d="M22.8359 36.6757H21.1953V39.9158L23.3204 39.9232C24.3883 39.9232 25.2567 39.1813 25.2567 38.2695C25.2567 37.8336 25.063 37.4616 24.6555 37.1257C24.2429 36.815 23.4441 36.6757 22.8359 36.6757ZM23.3204 39.4749H22.8711L22.6317 39.4735V38.0162H24.0275C24.2591 38.0162 24.5062 38.045 24.7463 38.0865C24.7583 38.146 24.768 38.2063 24.768 38.2698C24.768 39.0142 24.0167 39.4749 23.3204 39.4749Z" fill="#231F20"/>
<path d="M36.0046 42.0005H38.4634L37.2431 39.6311L36.0046 42.0005Z" fill="#231F20"/>
<path d="M57.9637 33.735H54.1718V39.7719L46.8498 33.735H45.8193V46.2144H47.2561V47.1064H50.5504V40.9738L56.9062 46.2144H57.1104L58.1922 47.1064H58.9118V35.0756H57.9641V33.735H57.9637ZM46.3085 34.1836H46.6626L54.6609 40.778V34.1836H57.475V45.7662H57.0937L49.114 39.1863V45.7658H46.3085V34.1836Z" fill="#231F20"/>
<path d="M15.9603 40.4748C15.8052 40.1588 15.6077 39.8669 15.373 39.6052C15.5241 39.2665 15.6448 38.8604 15.6448 38.5019C15.6448 37.6117 15.2682 36.8251 14.4407 36.1704C14.2219 35.6774 13.8658 35.2337 13.3643 34.8472C12.4247 34.1294 11.281 33.7651 9.96408 33.7651H5.7832V46.2148H7.22001V47.1068H12.5577C13.9509 47.1068 15.1626 46.7191 16.0256 45.9623C16.8697 45.2154 17.3008 44.2922 17.3008 43.2325C17.3008 42.1725 16.7893 41.1429 15.9603 40.4748ZM6.27232 34.2138H9.96447C11.1639 34.2138 12.2024 34.5429 13.0511 35.1915C13.8302 35.792 14.2088 36.5098 14.2088 37.3861C14.2088 37.8387 13.9918 38.4203 13.778 38.7611L13.6454 38.9725L13.8859 39.076C15.0694 39.5857 15.8648 40.8078 15.8648 42.1165C15.8648 43.1159 15.4611 43.9802 14.6654 44.6841C13.8577 45.3924 12.717 45.7665 11.3661 45.7665H6.27232V34.2138Z" fill="#231F20"/>
<path d="M28.6504 41.7714C29.2327 41.0489 29.5312 40.2652 29.5312 39.436V39.1363C29.5312 37.8262 29.0335 37.1148 28.2479 36.4094C28.0008 35.8991 27.6296 35.4838 27.1575 35.0688C26.6494 34.6276 26.0525 34.2953 25.3731 34.0783C24.6164 33.8701 23.8265 33.7648 23.0261 33.7648H17.9973L18.0058 46.2144H19.4415L19.4422 47.1064H22.6402V43.1095L25.2146 46.2144H25.7884L26.528 47.1064H30.4162L27.2723 42.8023C27.8856 42.547 28.2343 42.2838 28.6504 41.7714ZM21.2034 40.6361V45.7662H18.4942L18.4864 34.2134H23.0257C23.7789 34.2134 24.5213 34.3127 25.2223 34.5049C25.8255 34.6979 26.3633 34.9972 26.82 35.3937C27.6273 36.1033 28.0944 36.7605 28.0944 38.0202V38.3199C28.0944 39.0952 27.8144 39.836 27.2623 40.5212C26.8664 41.0085 26.5543 41.2422 25.979 41.482L25.7168 41.5912L28.7656 45.7658H25.4566L21.2034 40.6361Z" fill="#231F20"/>
<path d="M38.4726 35.1201L37.7662 33.7795H36.7036L30.1572 46.2143H32.2084L31.7386 47.1063H35.2019L36.172 45.2823H39.8104L40.3061 46.2143H41.1764L41.6509 47.1063H45.1226L38.8047 35.1201H38.4726ZM39.6418 43.9417H34.8276L33.8575 45.7657H30.9363L37.0103 34.2278H37.4592L43.5408 45.7657H40.6119L39.6418 43.9417Z" fill="#231F20"/>
<path d="M71.5571 37.0071C71.2567 36.4837 70.8662 36.0084 70.3852 35.5843C68.9178 34.4114 66.8898 33.7653 64.6747 33.7653L60.0959 33.7727V46.2146H61.5327V47.1065H65.2987C67.7277 47.1065 69.7967 46.5185 71.416 45.3503C72.644 44.2757 73.253 42.85 73.253 41.1168C73.253 39.4539 72.6865 38.0743 71.5571 37.0071ZM60.5847 34.221L64.6747 34.2135C66.7719 34.2135 68.6858 34.8203 70.055 35.9148C71.2238 36.9468 71.8162 38.3218 71.8162 40.0004C71.8162 41.6789 71.2238 43.049 70.0728 44.0576C68.5014 45.1911 66.4939 45.7659 64.1063 45.7659H60.5847V34.221Z" fill="#231F20"/>
<path d="M68.9745 39.9821C68.9745 37.9733 67.2837 36.6757 64.6664 36.6757H63.5784L63.6112 43.2885H64.2075C66.9712 43.2885 68.6636 42.1249 68.9745 39.9821ZM65.0399 42.7973L65.0163 38.0159H65.8585C66.6356 38.0159 67.3463 38.1489 67.9549 38.3929C68.2971 38.8252 68.4869 39.3511 68.4873 39.9519C68.1927 41.9724 66.5919 42.6395 65.0399 42.7973Z" fill="#231F20"/>
</symbol>


<symbol  id="brand2" viewBox="0 0 80 80">
<rect x="0.5" y="0.5" width="79" height="79" fill="white" stroke="#E6E6E6"/>
<path d="M63.9967 40.2177C63.3548 40.2177 62.7981 40.6321 62.7981 41.085C62.7981 41.6991 63.5089 41.8908 64.108 41.8908C64.7676 41.8908 65.3667 41.6607 65.3667 41.085C65.3667 40.4556 64.5877 40.2177 63.9967 40.2177Z" fill="black"/>
<path d="M37.558 41.346C36.9411 41.4687 36.4534 41.5226 36.4534 41.8141C36.4534 41.9833 36.8298 41.9985 36.9673 41.9985C37.6951 41.9985 38.3543 41.8141 38.3543 41.2003V40.8856H38.3374C38.243 41.0082 37.9348 41.2694 37.558 41.346Z" fill="black"/>
<path d="M16.7275 40.2021C16.0082 40.2021 15.3833 40.5168 15.3833 41.1081C15.3833 41.6528 15.8884 42.0138 16.7275 42.0138C17.5154 42.0138 18.0718 41.6912 18.0718 41.1081C18.0721 40.5247 17.3613 40.2021 16.7275 40.2021Z" fill="black"/>
<path d="M6.74707 32.7711V47.7276H74.2169V32.7711H6.74707ZM17.4387 43.1425C15.315 43.1425 14.1761 42.4286 13.9966 42.2904L13.243 43.0734C13.2002 43.1114 13.1659 43.127 13.1143 43.127H12.0012C11.8641 43.127 11.8213 43.0734 11.8213 43.0195V38.5518H10.3573C10.2629 38.5518 10.2032 38.521 10.2032 38.4754V37.5159C10.2032 37.4161 10.2544 37.3701 10.3399 37.3701H15.2549C15.3235 37.3701 15.3663 37.4085 15.3663 37.4468V39.7113C15.503 39.6114 16.3337 39.0129 17.8663 39.0129C19.6729 39.0129 22.0104 39.6885 22.0104 41.1316C22.0107 42.774 19.4849 43.1425 17.4387 43.1425ZM30.8508 40.8242C30.2598 40.8242 29.8406 40.5786 29.6094 40.4404C29.3782 40.2947 29.1471 40.2408 28.8731 40.2408C28.4875 40.2408 27.7343 40.5326 27.7343 41.0621V41.945H29.2068C29.2665 41.945 29.3093 41.9909 29.3093 42.0293V43.0423C29.3093 43.0962 29.2322 43.127 29.1725 43.127H22.6309C22.5793 43.127 22.5284 43.0734 22.5284 43.0351V42.0217C22.5284 41.9757 22.5881 41.9453 22.6309 41.9453H24.1635V40.218H22.6821C22.5877 40.218 22.528 40.1952 22.528 40.1413V39.1818C22.528 39.0899 22.5877 39.0363 22.6736 39.0363H27.6225C27.6915 39.0363 27.7343 39.0743 27.7343 39.1127V39.7883C28.0853 39.4353 28.9845 39.0129 29.9774 39.0129H30.5684C31.1678 39.0129 32.0925 39.3738 32.0925 39.9648C32.0921 40.5171 31.4503 40.8242 30.8508 40.8242ZM42.4128 43.127H40.0241C39.2189 43.127 38.6198 42.7277 38.3882 42.3823C37.9602 42.9349 36.4106 43.1425 36.0681 43.1425C35.0317 43.1425 32.5231 43.0579 32.5231 41.9374C32.5231 40.809 35.2972 40.648 35.6828 40.648H37.1469C37.5495 40.648 38.3713 40.5558 38.3713 40.3406C38.3713 40.0874 37.9259 39.9876 37.5579 39.9876H36.4876C36.085 39.9876 35.5202 40.3178 35.3145 40.3945C35.0918 40.4788 34.1159 40.6863 33.773 40.6863C33.4648 40.6863 32.5829 40.5406 32.5829 39.9724C32.5829 39.1203 34.3467 39.0129 37.0949 39.0129C40.2033 39.0129 42.0784 39.1586 42.0784 40.4176V41.554C42.0784 41.5923 42.1809 41.9685 42.6949 41.9685C43.3198 41.9685 43.3629 41.3851 43.3629 41.3547C43.3629 41.3163 43.3887 41.2856 43.44 41.2856H44.5103C44.5276 41.2856 44.5446 41.3008 44.5446 41.3236C44.5449 42.6586 43.3032 43.127 42.4128 43.127ZM58.1624 43.0423C58.1624 43.1114 58.1112 43.127 58.0083 43.127H51.8523C51.7495 43.127 51.7152 43.0807 51.7152 43.004V42.0369C51.7152 41.9833 51.758 41.945 51.8265 41.945H53.0679V41.5533C53.0679 40.486 52.9654 40.256 51.5865 40.256C50.1225 40.256 50.1225 41.0849 50.1225 41.7222V41.945H51.2695C51.3384 41.945 51.3812 41.9909 51.3812 42.0293V43.0503C51.3812 43.1118 51.3384 43.127 51.2695 43.127H45.0276C44.9759 43.127 44.942 43.0734 44.942 43.0195V42.0213C44.942 41.9754 45.0106 41.945 45.0534 41.945H46.5005V40.2176H45.0961C45.0021 40.2176 44.9335 40.1948 44.9335 40.141V39.1814C44.9335 39.0895 44.9852 39.036 45.0707 39.036H50.0196C50.0885 39.036 50.1313 39.074 50.1313 39.1123V39.8263H50.1567C50.3024 39.6419 50.8845 39.0357 52.3232 39.0357H54.3952C55.7394 39.0357 56.5955 39.7341 56.5955 40.5168V41.9447H58.0511C58.1366 41.9447 58.1624 41.9982 58.1624 42.0289V43.0423ZM70.5728 43.0579C70.5728 43.0962 70.5474 43.127 70.4958 43.127H65.4525C65.3928 43.127 65.3157 43.0807 65.3157 43.0116V42.5743C65.0761 42.7277 64.3225 43.1425 62.9779 43.1425C60.9317 43.1425 58.6709 42.4286 58.6709 41.039C58.6709 39.9721 60.1353 39.427 60.4435 39.3351C60.7517 39.2353 61.4368 39.0125 62.7983 39.0125C63.8856 39.0125 64.9131 39.4653 65.367 39.8111V38.5518H63.8856C63.7912 38.5518 63.7315 38.521 63.7315 38.4754V37.5159C63.7315 37.4161 63.7831 37.3701 63.8683 37.3701H68.8946C68.9716 37.3701 69.0144 37.4085 69.0144 37.4468V41.8683H70.5127C70.5555 41.8683 70.5725 41.9066 70.5725 41.9837V43.0579H70.5728Z" fill="black"/>
</symbol>

<symbol  id="brand3" viewBox="0 0 80 80">
<rect x="0.5" y="0.5" width="79" height="79" fill="white" stroke="#E6E6E6"/>
<path d="M6.74839 46.3445C6.91978 45.5124 7.12678 44.7273 7.37069 43.9893C7.61328 43.2513 7.89938 42.529 8.22899 41.8224C8.55728 41.1158 8.91589 40.4131 9.30175 39.7146C9.68849 39.016 10.1104 38.2896 10.5679 37.536C10.9973 36.8293 11.4838 36.111 12.027 35.3807C12.5701 34.6507 13.1863 33.9405 13.8728 33.2495C14.5592 32.5586 15.3033 31.9071 16.1044 31.2945C16.9052 30.6824 17.778 30.1403 18.7228 29.6693L19.1944 29.4578C19.5381 29.3162 19.8663 29.2458 20.1819 29.2458C20.5247 29.2458 20.8398 29.3444 21.1259 29.5406C21.412 29.7373 21.5553 29.9995 21.5553 30.3293C21.5553 30.7379 21.4045 31.1815 21.1044 31.6601C20.8042 32.1395 20.5102 32.5827 20.2245 32.9909C19.6233 33.8544 18.9434 34.73 18.1858 35.6172C17.4272 36.5044 16.598 37.3679 15.6961 38.208C14.7952 39.0482 13.8222 39.8332 12.7776 40.5632C11.7329 41.2935 10.6101 41.941 9.40899 42.5065C9.23671 42.5853 9.06531 42.7619 8.89392 43.0366C8.72252 43.3113 8.56431 43.6137 8.42148 43.9431C8.27821 44.2729 8.15691 44.595 8.05715 44.9087C7.95651 45.2232 7.90641 45.4589 7.90641 45.6153C7.90641 45.6781 7.94992 45.7098 8.03562 45.7098C8.06374 45.7098 8.10637 45.6942 8.16438 45.6628L8.50718 45.333C8.76515 45.0973 9.05784 44.8347 9.38745 44.5439C9.71574 44.2536 10.0669 43.9869 10.4387 43.7432C10.8105 43.4995 11.1963 43.2956 11.598 43.1307C11.9979 42.9658 12.3987 42.8833 12.7991 42.8833C13.3713 42.8833 13.8147 43.0052 14.1299 43.2481C14.445 43.4918 14.6023 43.7782 14.6023 44.108C14.6023 44.3284 14.5381 44.5596 14.4094 44.8025C14.2802 45.0463 14.1439 45.2779 14.0011 45.4971C13.8578 45.7175 13.7225 45.9133 13.5928 46.0859C13.464 46.2588 13.3999 46.3843 13.3999 46.4627C13.3999 46.4788 13.4139 46.4865 13.4429 46.4865C13.8438 46.4865 14.4089 46.3216 15.1389 45.9918C15.8684 45.6624 16.612 45.2855 17.3706 44.8612C18.1282 44.4374 18.8296 44.0291 19.4739 43.6366C20.1177 43.2441 20.5533 42.9774 20.7831 42.8359C20.9259 42.7575 21.0683 42.718 21.212 42.718C21.2692 42.7494 21.2977 42.7888 21.2977 42.8359C21.2402 42.8672 21.2046 42.8946 21.1905 42.9179C21.1756 42.9416 21.1404 42.9694 21.0833 43.0004C20.8543 43.1419 20.4535 43.4009 19.8813 43.7778C19.3091 44.1546 18.6512 44.5552 17.9076 44.9791C17.1631 45.4034 16.362 45.8116 15.5037 46.2037C14.6454 46.5962 13.8152 46.879 13.0145 47.0515C12.8712 47.0825 12.7349 47.1062 12.6062 47.1223C12.4774 47.1376 12.3557 47.177 12.2419 47.2401L11.8551 47.4521C11.54 47.5933 11.268 47.6636 11.0399 47.6636C10.8685 47.6636 10.6457 47.6085 10.3745 47.4987C10.1025 47.3889 9.96624 47.2635 9.96624 47.1219C9.96624 47.0274 10.0809 46.9453 10.3099 46.8746C10.5384 46.8038 10.8105 46.7684 11.1251 46.7684H11.4679C11.754 46.7684 12.0186 46.6702 12.2625 46.474C12.5051 46.2777 12.7125 46.0384 12.8844 45.7557C13.0566 45.4734 13.1995 45.1749 13.3137 44.8608C13.4276 44.5471 13.5133 44.2721 13.5708 44.0364V43.8007C13.5708 43.4709 13.4276 43.306 13.1419 43.306C12.6268 43.306 12.1254 43.4436 11.6398 43.7183C11.1528 43.9933 10.6804 44.3231 10.2233 44.7076C9.76496 45.0925 9.329 45.4846 8.91413 45.8852C8.49883 46.2858 8.1055 46.6115 7.7337 46.8629C7.5623 46.9723 7.40453 47.0278 7.26214 47.0278C7.11799 47.0278 6.99669 46.9767 6.89693 46.875C6.79629 46.7724 6.74707 46.659 6.74707 46.5335V46.3445H6.74839ZM20.7835 30.1399V30.0462C20.726 29.858 20.6253 29.7635 20.4825 29.7635C20.0817 29.7635 19.56 29.9754 18.9162 30.3993C18.2724 30.8232 17.5921 31.3452 16.8775 31.9658C16.162 32.5859 15.4751 33.2415 14.8172 33.9324C14.1584 34.6234 13.6152 35.2279 13.1863 35.7463C12.4137 36.6882 11.7624 37.6305 11.2333 38.5724C10.7032 39.5147 10.182 40.4803 9.66696 41.4697L9.58126 41.6346C9.58126 41.7604 9.63839 41.8228 9.75266 41.8228C9.83835 41.8228 9.98866 41.76 10.2036 41.6346C10.418 41.5091 10.6606 41.3599 10.9331 41.1869C11.2042 41.014 11.4693 40.8334 11.7272 40.6452C11.9843 40.457 12.1997 40.2997 12.3711 40.1739C14.1734 38.8394 15.6896 37.4535 16.9205 36.0169C18.1506 34.5803 19.281 33.0537 20.3115 31.4361C20.4544 31.2161 20.5686 31.0006 20.6543 30.7882C20.7409 30.5759 20.7835 30.3603 20.7835 30.1399Z" fill="black"/>
<path d="M23.4869 42.7647H23.787C24.4449 42.7647 25.0031 42.8866 25.4614 43.1295C25.9185 43.3732 26.191 43.6595 26.2767 43.9893C26.191 44.3975 25.947 44.7901 25.5471 45.1669C25.1459 45.5437 24.7319 45.929 24.3021 46.3212C23.8732 46.7137 23.4869 47.1259 23.1427 47.5579C22.8 47.9894 22.6281 48.4567 22.6281 48.9591C22.6281 49.2261 22.7569 49.4614 23.014 49.6657C23.272 49.8696 23.6288 50.0582 24.0872 50.2307C24.1443 50.2621 24.2441 50.2895 24.3873 50.3132C24.5302 50.3369 24.6023 50.3639 24.6023 50.3956C24.6023 50.4266 24.5297 50.4503 24.3873 50.4664C24.2441 50.4817 24.1443 50.4897 24.0872 50.4897C23.9439 50.4897 23.8292 50.4696 23.7435 50.431C23.6578 50.3916 23.5572 50.3562 23.4433 50.3253C22.8703 50.1209 22.4202 49.8816 22.0911 49.607C21.7619 49.3319 21.5971 48.9671 21.5971 48.5118C21.5971 48.0252 21.7478 47.5735 22.048 47.1573C22.3482 46.7414 22.7059 46.3368 23.1208 45.9443C23.5356 45.5518 23.9435 45.1669 24.3443 44.7901C24.7451 44.4132 25.0452 44.0287 25.2452 43.6358V43.565C25.2452 43.2513 24.8303 43.0941 24.001 43.0941C23.9153 43.0941 23.8362 43.0981 23.7646 43.1057C23.693 43.1134 23.6147 43.1174 23.5286 43.1174C22.3266 43.1174 21.4534 43.008 20.9102 42.788C20.367 42.568 20.095 42.3014 20.095 41.9869C20.095 41.7516 20.2088 41.5199 20.4386 41.2923C20.6672 41.0647 20.9458 40.8608 21.2754 40.6798C21.6037 40.4996 21.9548 40.3544 22.3266 40.2442C22.6984 40.1348 23.0135 40.0793 23.2715 40.0793C23.5857 40.0793 23.8288 40.1465 24.001 40.2796C24.1724 40.4132 24.2581 40.566 24.2581 40.7389L23.8723 41.304C23.6424 41.524 23.4064 41.7158 23.1643 41.8811C22.9204 42.046 22.6844 42.1992 22.4563 42.3404L22.0695 42.5757C22.0695 42.6545 22.2475 42.7052 22.6061 42.7285C22.9639 42.7526 23.2574 42.7647 23.4869 42.7647ZM20.8685 42.0814C20.8966 42.3798 21.0407 42.529 21.2978 42.529C21.4406 42.529 21.6547 42.4582 21.9417 42.3171C22.2269 42.1755 22.5064 42.0034 22.7784 41.7991C23.0496 41.5952 23.2935 41.3832 23.508 41.1632C23.7224 40.9432 23.8296 40.7474 23.8296 40.5744C23.8296 40.4489 23.729 40.3862 23.5295 40.3862C23.1577 40.3862 22.8215 40.4534 22.5213 40.5865C22.2203 40.72 21.9632 40.8769 21.7487 41.0578C21.5338 41.2384 21.3545 41.427 21.2121 41.6229C21.0684 41.8188 20.9541 41.9716 20.8685 42.0814Z" fill="black"/>
<path d="M29.1514 45.1668C29.2085 44.79 29.3012 44.4602 29.43 44.1778C29.5592 43.8951 29.731 43.6361 29.9451 43.4004C30.1595 43.1652 30.4175 42.9375 30.7177 42.7175C31.0187 42.4975 31.3681 42.2546 31.7698 41.9872C31.9693 41.8617 32.2198 41.7362 32.5208 41.6103C32.821 41.4849 33.1431 41.4221 33.4864 41.4221C33.8582 41.4221 34.2014 41.5126 34.5169 41.6932C34.8312 41.8738 34.9885 42.0897 34.9885 42.3411C34.9885 42.514 34.9243 42.7023 34.7956 42.9062C34.6668 43.1105 34.5451 43.2122 34.4304 43.2122C34.2871 43.2122 34.2159 43.1808 34.2159 43.1177C34.2159 43.1024 34.2225 43.0908 34.2374 43.0827C34.2515 43.0751 34.259 43.063 34.259 43.0473L34.3877 42.6234C34.3877 42.545 34.3943 42.4742 34.4093 42.4115C34.4233 42.3487 34.4308 42.2784 34.4308 42.1999C34.4308 42.1372 34.4093 42.0704 34.3666 41.9996C34.3236 41.9289 34.2168 41.8935 34.0449 41.8935C33.7588 41.8935 33.4367 42.0198 33.0794 42.2707C32.7208 42.5221 32.3714 42.8241 32.0273 43.1772C31.6845 43.5307 31.376 43.8879 31.1048 44.249C30.8319 44.6102 30.6539 44.9082 30.5682 45.1439C30.4535 45.2537 30.3968 45.458 30.3968 45.756C30.3968 45.9603 30.4825 46.0621 30.6539 46.0621C30.9976 46.0621 31.3334 45.972 31.663 45.7914C31.9913 45.6108 32.2989 45.4029 32.5854 45.1668C32.8707 44.9315 33.1286 44.7039 33.358 44.4839C33.5866 44.2639 33.7729 44.1151 33.9162 44.0363C34.0876 43.9108 34.2445 43.8481 34.3877 43.8481C34.7028 43.8481 34.8817 43.9345 34.9243 44.1071C34.9674 44.28 35.0026 44.4718 35.0316 44.6842C35.0597 44.8961 35.1529 45.0888 35.3111 45.2613C35.468 45.4343 35.7466 45.5203 36.1478 45.5203C36.4906 45.5203 36.884 45.4459 37.3278 45.2963C37.7713 45.1475 38.1936 44.9705 38.594 44.7666C38.9948 44.5627 39.3591 44.3661 39.6887 44.1778C40.017 43.9896 40.2534 43.8561 40.3967 43.7773C40.5105 43.7145 40.6538 43.624 40.8256 43.5062C40.9979 43.3884 41.1759 43.275 41.3622 43.1648C41.5477 43.055 41.7125 42.9609 41.8562 42.882C41.999 42.8036 42.1133 42.7642 42.199 42.7642C42.2271 42.7642 42.2698 42.7759 42.3282 42.7992C42.3854 42.8229 42.4139 42.8507 42.4139 42.8816C42.4139 42.9134 42.3563 42.9681 42.2416 43.0465C42.1269 43.1253 41.9845 43.2114 41.8127 43.3055C41.6413 43.4 41.469 43.4982 41.2976 43.6003C41.1262 43.7025 40.9975 43.7849 40.9118 43.8477C40.7676 43.9418 40.5105 44.099 40.1387 44.319C39.7669 44.539 39.3587 44.7626 38.9161 44.9902C38.4718 45.2183 38.0288 45.4182 37.5854 45.5911C37.1411 45.764 36.7767 45.8501 36.4906 45.8501C36.0331 45.8501 35.6464 45.7994 35.3322 45.6969C35.0166 45.5951 34.774 45.4536 34.6026 45.273C34.4304 45.0928 34.3086 44.9158 34.2374 44.7429C34.1658 44.5704 34.1153 44.4839 34.0876 44.4839C33.9443 44.4839 33.7439 44.5977 33.4864 44.8254C33.2293 45.053 32.9423 45.2846 32.6281 45.5199C32.313 45.7552 31.9768 45.9756 31.619 46.1795C31.2613 46.3834 30.9545 46.4856 30.6966 46.4856C30.3248 46.4856 29.9736 46.344 29.6453 46.0613C29.3157 45.7793 29.1514 45.4809 29.1514 45.1668Z" fill="black"/>
<path d="M51.47 44.8843C50.4684 44.8686 49.6242 44.6804 48.9373 44.3192C48.2513 43.958 47.6215 43.4477 47.0493 42.7881C46.8203 42.5524 46.6626 42.4346 46.5769 42.4346C46.4055 42.4346 46.1119 42.5444 45.697 42.7644C45.2817 42.9848 44.8387 43.251 44.3663 43.5651C43.8939 43.8796 43.4223 44.213 42.9499 44.5661C42.4774 44.9192 42.0982 45.2293 41.8121 45.4964C41.7545 45.5434 41.6974 45.5909 41.6407 45.6379C41.5831 45.685 41.4974 45.7087 41.3836 45.7087C41.0109 45.7087 40.8254 45.5205 40.8254 45.1437C40.8254 44.9554 40.8896 44.7081 41.0184 44.4016C41.1476 44.0956 41.3045 43.7658 41.4908 43.4127C41.6763 43.0592 41.8916 42.6984 42.1346 42.3292C42.3772 41.9604 42.6286 41.6306 42.8857 41.3399C43.1428 41.0495 43.3863 40.8098 43.6152 40.6216C43.8438 40.4333 44.0301 40.3392 44.1734 40.3392C44.3162 40.3392 44.4305 40.3742 44.5162 40.445C44.6019 40.5158 44.6449 40.5906 44.6449 40.669C44.6449 40.7788 44.6159 40.8693 44.5592 40.9397C44.5017 41.0105 44.4445 41.0929 44.3878 41.1874C43.9585 41.7211 43.5511 42.2588 43.1643 42.8006C42.7785 43.3423 42.3983 43.8881 42.0274 44.4378C41.9698 44.5006 41.9127 44.5597 41.856 44.6144C41.7984 44.6695 41.7694 44.7202 41.7694 44.7676C41.7694 44.8304 41.827 44.8617 41.9417 44.8617C41.9988 44.8617 42.0705 44.8267 42.1562 44.756C42.2419 44.6852 42.3131 44.6345 42.3706 44.6027L45.0317 42.6952L45.89 42.1535C46.0328 42.0754 46.2191 42.0356 46.4481 42.0356C46.9632 42.0356 47.3772 42.1651 47.6932 42.4241C48.0074 42.6831 48.3155 42.9659 48.6156 43.2719C48.9158 43.578 49.2735 43.8607 49.6888 44.1197C50.1028 44.3787 50.6825 44.5082 51.4269 44.5082C52.1705 44.5082 52.879 44.4101 53.5514 44.2134C54.2233 44.0172 54.8747 43.7622 55.5044 43.4481L56.9635 42.7181C57.0773 42.7181 57.1349 42.7495 57.1349 42.8122C57.1349 42.8911 57.0417 42.9928 56.8563 43.1183C56.669 43.2442 56.441 43.3773 56.1694 43.5189C55.8964 43.6604 55.6178 43.7939 55.3317 43.9194C55.0456 44.0453 54.8171 44.1471 54.6457 44.2255C53.6731 44.6486 52.6144 44.869 51.47 44.8843Z" fill="black"/>
<path d="M55.0747 45.5671C55.0747 45.1432 55.1828 44.6682 55.3968 44.1421C55.6113 43.6165 55.9119 43.1258 56.2977 42.6702C56.6845 42.2149 57.156 41.834 57.7142 41.528C58.2723 41.2219 58.9087 41.0687 59.6241 41.0687C59.9093 41.0687 60.1823 41.1121 60.4394 41.1982C60.6965 41.2847 60.9259 41.3751 61.1263 41.4693C61.3258 41.5638 61.4906 41.6539 61.6202 41.7403C61.749 41.8268 61.8272 41.8698 61.8562 41.8698C61.9991 41.8385 62.0707 41.7874 62.0707 41.7166C62.0707 41.6458 62.0848 41.5718 62.1138 41.493C62.715 39.4672 63.6519 37.5207 64.9251 35.6517C66.1983 33.7832 67.8362 31.9931 69.8393 30.2819C70.0107 30.1403 70.1971 29.9915 70.3975 29.8342C70.597 29.6774 70.8123 29.5322 71.0413 29.3987C71.2698 29.2655 71.5138 29.1513 71.7708 29.0572C72.0279 28.9631 72.2859 28.9156 72.5434 28.9156C73.0299 28.9156 73.4299 29.0572 73.7454 29.3399C74.0596 29.6223 74.217 29.9135 74.217 30.2115C74.217 30.8236 74.0306 31.4598 73.6597 32.119C73.287 32.7786 72.8717 33.3987 72.4147 33.9799C71.5278 35.2516 70.5183 36.5003 69.3889 37.725C68.2577 38.9496 66.9208 40.1272 65.3756 41.2577C65.1752 41.3993 64.9462 41.5445 64.6887 41.6937C64.4316 41.8429 64.1802 41.9881 63.9376 42.1292C63.6946 42.2708 63.4867 42.4196 63.3153 42.5769C63.1439 42.7341 63.0433 42.899 63.0151 43.0715C62.9576 43.4013 62.8859 43.7194 62.8002 44.0255C62.7145 44.3316 62.6715 44.6497 62.6715 44.9795C62.6715 45.8273 62.9075 46.6007 63.3795 47.2996C63.8519 47.9982 64.617 48.622 65.6757 49.1722L65.9337 49.29C65.9337 49.3528 65.9618 49.3841 66.0194 49.3841C66.0194 49.3998 66.0045 49.4155 65.9763 49.4316C65.7184 49.29 65.4753 49.1843 65.2468 49.1135C65.017 49.0427 64.7884 48.9289 64.5599 48.772C63.9868 48.4261 63.5148 48.0775 63.1435 47.7239C62.7708 47.3708 62.4781 46.994 62.2636 46.5934C62.0487 46.1928 61.8984 45.769 61.8127 45.3217C61.727 44.8741 61.684 44.3758 61.684 43.826V43.6611C61.684 43.5984 61.6264 43.5666 61.5117 43.5666C61.4827 43.5666 61.44 43.5827 61.3829 43.6141L61.0401 43.9435C60.7822 44.2732 60.4886 44.6501 60.1603 45.0744C59.8307 45.4983 59.4734 45.8948 59.0871 46.2636C58.7012 46.6324 58.307 46.9469 57.9066 47.2059C57.5058 47.4645 57.1055 47.5944 56.7056 47.5944C56.5043 47.5944 56.3114 47.5474 56.1259 47.4533C55.9396 47.3588 55.7673 47.2413 55.6108 47.0998C55.4535 46.9582 55.3247 46.8054 55.225 46.6405C55.1243 46.4756 55.0742 46.3147 55.0742 46.1579V45.5671H55.0747ZM60.3115 41.5867C59.6246 41.5867 59.0238 41.756 58.5083 42.093C57.9937 42.4309 57.5494 42.8471 57.1776 43.3414C56.8058 43.8361 56.5263 44.3541 56.3408 44.8958C56.1545 45.4376 56.0622 45.9125 56.0622 46.3203V46.6739L56.1909 46.9562C56.2766 47.0817 56.3905 47.1444 56.5337 47.1444C56.8198 47.1444 57.1415 47.0306 57.4997 46.803C57.8565 46.5749 58.2147 46.2849 58.5725 45.9314C58.9302 45.5783 59.2875 45.1979 59.6457 44.7892C60.0025 44.3814 60.3176 43.9966 60.5897 43.635C60.8617 43.2742 61.0836 42.9722 61.255 42.7281C61.4264 42.4848 61.5121 42.3476 61.5121 42.3162C61.5121 42.128 61.4049 41.9595 61.1904 41.8099C60.9768 41.6615 60.6824 41.5867 60.3115 41.5867ZM73.5305 30.1399V29.9987C73.5305 29.9046 73.4874 29.7984 73.4017 29.6806C73.316 29.5628 73.1873 29.504 73.0159 29.504C72.8436 29.504 72.6573 29.5551 72.4577 29.6573C72.2573 29.7594 72.0635 29.8809 71.8781 30.022C71.6917 30.1636 71.5137 30.3124 71.3415 30.4697C71.1701 30.6269 71.0264 30.76 70.9125 30.8702C69.3673 32.2992 68.037 33.7478 66.9208 35.2158C65.8045 36.6841 64.8746 38.2269 64.131 39.8441L63.4871 41.5396C63.4581 41.5557 63.4441 41.5947 63.4441 41.6575C63.4441 41.752 63.5148 41.799 63.6585 41.799C63.7732 41.799 63.9165 41.7443 64.0879 41.6342C64.2593 41.524 64.4531 41.3904 64.6676 41.2336C64.882 41.0767 65.0895 40.9078 65.2899 40.7272C65.4894 40.5471 65.6757 40.3938 65.848 40.268C66.792 39.5143 67.6859 38.7332 68.5301 37.9245C69.3744 37.1157 70.1404 36.2836 70.8268 35.4277C71.5133 34.5719 72.0925 33.7008 72.565 32.8132C73.0374 31.9264 73.3587 31.0351 73.5305 30.1399Z" fill="black"/>
</symbol>

<symbol  id="brand4" viewBox="0 0 80 80">
<rect x="0.5" y="0.5" width="79" height="79" fill="white" stroke="#E6E6E6"/>
<path d="M41.8403 26.9879H6.74707V52.4573H41.8403V26.9879Z" fill="black"/>
<path d="M23.7515 49.0219V30.4767H28.31C29.3462 30.4767 30.2574 30.5643 31.0443 30.7394C31.8306 30.9145 32.5196 31.1894 33.1108 31.5639C33.7014 31.9384 34.1505 32.4433 34.4576 33.0784C34.7647 33.7135 34.918 34.4742 34.918 35.3604C34.918 35.745 34.9026 36.0884 34.872 36.3906C34.8413 36.6929 34.77 37.0384 34.6592 37.4261C34.5478 37.8139 34.3963 38.1578 34.2048 38.4564C34.0126 38.755 33.7368 39.0488 33.376 39.3373C33.0153 39.6259 32.5892 39.8664 32.0982 40.0584C33.3413 43.5886 34.4234 46.5764 35.3447 49.0219H31.0048L28.6336 40.481H27.9416V49.0219H23.7515ZM27.9416 38.1937H29.1387C29.4611 38.1937 29.7376 38.0971 29.9674 37.9051C30.1973 37.7131 30.3647 37.4689 30.4685 37.1735C30.5722 36.8781 30.6447 36.6069 30.6871 36.3595C30.729 36.1121 30.7502 35.8789 30.7502 35.659C30.7502 35.439 30.7331 35.2122 30.6983 34.979C30.6635 34.7458 30.6022 34.4858 30.5138 34.2009C30.4254 33.9161 30.2798 33.6824 30.0765 33.5004C29.8731 33.3184 29.6256 33.2271 29.3338 33.2271H27.9416V38.1937Z" fill="white"/>
<path d="M10.6274 49.0219V30.4767H14.8984C15.6658 30.4767 16.343 30.5126 16.9301 30.5848C17.5171 30.6571 18.093 30.7974 18.6571 31.0074C19.2211 31.2173 19.6856 31.4969 20.0498 31.8472C20.4141 32.1974 20.7059 32.6595 20.9245 33.2329C21.1432 33.8063 21.2528 34.4847 21.2528 35.2676C21.2528 36.2361 20.9976 36.9983 20.4872 37.5549C19.9768 38.1114 19.1846 38.5508 18.1101 38.8736C20.5738 39.4096 21.8057 40.9689 21.8057 43.5511C21.8057 45.4122 21.3065 46.79 20.3092 47.6826C19.3113 48.5751 17.7883 49.0219 15.7389 49.0219H10.6274ZM14.7946 37.7711H15.5084C15.8921 37.7711 16.2145 37.7057 16.4756 37.5754C16.7362 37.4451 16.9342 37.2547 17.0686 37.0036C17.203 36.7525 17.2967 36.4835 17.3509 36.1949C17.4045 35.9064 17.4317 35.5667 17.4317 35.1747C17.4317 34.8656 17.4069 34.5939 17.3568 34.3608C17.3067 34.1276 17.2513 33.933 17.19 33.7784C17.1287 33.6238 17.025 33.4935 16.8794 33.387C16.7332 33.2804 16.6047 33.2013 16.4939 33.1501C16.3825 33.0984 16.2133 33.061 15.9876 33.0367C15.7613 33.0124 15.5791 32.9993 15.4406 32.9956C15.3021 32.9919 15.0876 32.9903 14.7958 32.9903V37.7711H14.7946ZM14.8176 46.3738H15.209C15.7536 46.3738 16.1951 46.3174 16.5328 46.204C16.8705 46.0906 17.1275 45.8964 17.3043 45.6216C17.4806 45.3468 17.5979 45.0361 17.6556 44.6889C17.7134 44.3418 17.7417 43.8766 17.7417 43.2931C17.7417 42.3246 17.5519 41.5724 17.1717 41.037C16.7916 40.5015 16.145 40.2336 15.232 40.2336H14.8176V46.3738Z" fill="white"/>
<path d="M49.512 49.0221V30.4663H52.528L57.0754 40.1715V30.4663H60.5517V49.0221H57.6506L53.1151 38.7293V49.0221H49.512Z" fill="black"/>
<path d="M63.0159 49.0219V30.4767H67.3445C68.7261 30.4767 69.8637 30.5885 70.7579 30.8117C71.652 31.0348 72.354 31.4025 72.8644 31.9142C73.3749 32.4258 73.7279 33.0388 73.9236 33.7531C74.1193 34.4673 74.2171 35.3773 74.2171 36.4835V42.562C74.2171 43.2214 74.1941 43.7969 74.1482 44.2875C74.1022 44.7781 74.0155 45.2597 73.8894 45.7297C73.7633 46.1997 73.59 46.5985 73.3713 46.9251C73.1526 47.2516 72.8703 47.5549 72.5249 47.8371C72.1795 48.1194 71.7634 48.342 71.2759 48.5071C70.7885 48.6722 70.2168 48.7993 69.5607 48.8885C68.9047 48.9776 68.1503 49.0225 67.2986 49.0225H63.0159V49.0219ZM67.3675 46.3949C67.7666 46.3949 68.0813 46.3897 68.3118 46.3796C68.5422 46.3696 68.7721 46.3438 69.0026 46.3026C69.233 46.2615 69.4016 46.2045 69.5089 46.1328C69.6162 46.0605 69.7163 45.956 69.8083 45.8184C69.9002 45.6807 69.9598 45.5182 69.9869 45.3288C70.0134 45.14 70.027 44.9047 70.027 44.623V34.6388C70.027 34.0274 69.8236 33.6222 69.4169 33.4228C69.0102 33.2234 68.3271 33.1206 67.3675 33.1137V46.3949Z" fill="black"/>
<path d="M41.8403 42.7472H40.7894L41.8403 36.1332V30.4767H40.0178L35.54 49.0219H39.6954L40.5017 45.055H41.8403V42.7472Z" fill="white"/>
<path d="M43.71 30.4767H41.8403V36.0388L41.868 35.8652L42.9154 42.7472H41.8403V45.055H43.1919L44.0436 49.0219H48.1766L43.71 30.4767Z" fill="black"/>
</symbol>

<symbol  id="brand5" viewBox="0 0 80 80">
<rect x="0.5" y="0.5" width="79" height="79" fill="white" stroke="#E6E6E6"/>
<path d="M13.0396 41.9476C13.0396 41.5525 12.8752 41.2244 12.5303 40.9393C12.1831 40.6715 11.8119 40.535 11.3576 40.5095C10.7846 40.485 10.2843 40.4903 9.75728 40.4967L8.97314 40.5031V43.3406H11.3658C12.3042 43.3406 13.0396 42.7285 13.0396 41.9476ZM11.3658 42.892H10.4099V41.8419C11.1469 41.8383 11.7775 41.8171 12.5385 41.8497C12.5392 41.8497 12.54 41.85 12.5404 41.85C12.5439 41.8823 12.5508 41.9132 12.5508 41.9476C12.5505 42.4771 12.0304 42.892 11.3658 42.892Z" fill="#231F20"/>
<path d="M9.91426 38.6948C10.5136 38.6367 11.1589 38.2788 11.1589 37.6294C11.1589 37.079 10.623 36.6311 9.96414 36.6311H8.97314V38.754L9.23259 38.7395C9.43056 38.7282 9.65133 38.7136 9.91426 38.6948ZM10.4099 38.0664V37.9713H10.5236C10.4896 38.0064 10.4517 38.0384 10.4099 38.0664Z" fill="#231F20"/>
<path d="M22.8359 36.6757H21.1953V39.9158L23.3204 39.9232C24.3883 39.9232 25.2567 39.1813 25.2567 38.2695C25.2567 37.8336 25.063 37.4616 24.6555 37.1257C24.2429 36.815 23.4441 36.6757 22.8359 36.6757ZM23.3204 39.4749H22.8711L22.6317 39.4735V38.0162H24.0275C24.2591 38.0162 24.5062 38.045 24.7463 38.0865C24.7583 38.146 24.768 38.2063 24.768 38.2698C24.768 39.0142 24.0167 39.4749 23.3204 39.4749Z" fill="#231F20"/>
<path d="M36.0046 42.0005H38.4634L37.2431 39.6311L36.0046 42.0005Z" fill="#231F20"/>
<path d="M57.9637 33.735H54.1718V39.7719L46.8498 33.735H45.8193V46.2144H47.2561V47.1064H50.5504V40.9738L56.9062 46.2144H57.1104L58.1922 47.1064H58.9118V35.0756H57.9641V33.735H57.9637ZM46.3085 34.1836H46.6626L54.6609 40.778V34.1836H57.475V45.7662H57.0937L49.114 39.1863V45.7658H46.3085V34.1836Z" fill="#231F20"/>
<path d="M15.9603 40.4748C15.8052 40.1588 15.6077 39.8669 15.373 39.6052C15.5241 39.2665 15.6448 38.8604 15.6448 38.5019C15.6448 37.6117 15.2682 36.8251 14.4407 36.1704C14.2219 35.6774 13.8658 35.2337 13.3643 34.8472C12.4247 34.1294 11.281 33.7651 9.96408 33.7651H5.7832V46.2148H7.22001V47.1068H12.5577C13.9509 47.1068 15.1626 46.7191 16.0256 45.9623C16.8697 45.2154 17.3008 44.2922 17.3008 43.2325C17.3008 42.1725 16.7893 41.1429 15.9603 40.4748ZM6.27232 34.2138H9.96447C11.1639 34.2138 12.2024 34.5429 13.0511 35.1915C13.8302 35.792 14.2088 36.5098 14.2088 37.3861C14.2088 37.8387 13.9918 38.4203 13.778 38.7611L13.6454 38.9725L13.8859 39.076C15.0694 39.5857 15.8648 40.8078 15.8648 42.1165C15.8648 43.1159 15.4611 43.9802 14.6654 44.6841C13.8577 45.3924 12.717 45.7665 11.3661 45.7665H6.27232V34.2138Z" fill="#231F20"/>
<path d="M28.6504 41.7714C29.2327 41.0489 29.5312 40.2652 29.5312 39.436V39.1363C29.5312 37.8262 29.0335 37.1148 28.2479 36.4094C28.0008 35.8991 27.6296 35.4838 27.1575 35.0688C26.6494 34.6276 26.0525 34.2953 25.3731 34.0783C24.6164 33.8701 23.8265 33.7648 23.0261 33.7648H17.9973L18.0058 46.2144H19.4415L19.4422 47.1064H22.6402V43.1095L25.2146 46.2144H25.7884L26.528 47.1064H30.4162L27.2723 42.8023C27.8856 42.547 28.2343 42.2838 28.6504 41.7714ZM21.2034 40.6361V45.7662H18.4942L18.4864 34.2134H23.0257C23.7789 34.2134 24.5213 34.3127 25.2223 34.5049C25.8255 34.6979 26.3633 34.9972 26.82 35.3937C27.6273 36.1033 28.0944 36.7605 28.0944 38.0202V38.3199C28.0944 39.0952 27.8144 39.836 27.2623 40.5212C26.8664 41.0085 26.5543 41.2422 25.979 41.482L25.7168 41.5912L28.7656 45.7658H25.4566L21.2034 40.6361Z" fill="#231F20"/>
<path d="M38.4726 35.1201L37.7662 33.7795H36.7036L30.1572 46.2143H32.2084L31.7386 47.1063H35.2019L36.172 45.2823H39.8104L40.3061 46.2143H41.1764L41.6509 47.1063H45.1226L38.8047 35.1201H38.4726ZM39.6418 43.9417H34.8276L33.8575 45.7657H30.9363L37.0103 34.2278H37.4592L43.5408 45.7657H40.6119L39.6418 43.9417Z" fill="#231F20"/>
<path d="M71.5571 37.0071C71.2567 36.4837 70.8662 36.0084 70.3852 35.5843C68.9178 34.4114 66.8898 33.7653 64.6747 33.7653L60.0959 33.7727V46.2146H61.5327V47.1065H65.2987C67.7277 47.1065 69.7967 46.5185 71.416 45.3503C72.644 44.2757 73.253 42.85 73.253 41.1168C73.253 39.4539 72.6865 38.0743 71.5571 37.0071ZM60.5847 34.221L64.6747 34.2135C66.7719 34.2135 68.6858 34.8203 70.055 35.9148C71.2238 36.9468 71.8162 38.3218 71.8162 40.0004C71.8162 41.6789 71.2238 43.049 70.0728 44.0576C68.5014 45.1911 66.4939 45.7659 64.1063 45.7659H60.5847V34.221Z" fill="#231F20"/>
<path d="M68.9745 39.9821C68.9745 37.9733 67.2837 36.6757 64.6664 36.6757H63.5784L63.6112 43.2885H64.2075C66.9712 43.2885 68.6636 42.1249 68.9745 39.9821ZM65.0399 42.7973L65.0163 38.0159H65.8585C66.6356 38.0159 67.3463 38.1489 67.9549 38.3929C68.2971 38.8252 68.4869 39.3511 68.4873 39.9519C68.1927 41.9724 66.5919 42.6395 65.0399 42.7973Z" fill="#231F20"/>
</symbol>

<symbol  id="brand6" viewBox="0 0 80 80">
<rect x="0.5" y="0.5" width="79" height="79" fill="white" stroke="#E6E6E6"/>
<path d="M20.4196 43.9742C20.4196 44.5675 20.2929 45.1285 20.0409 45.6574C19.7889 46.1864 19.4465 46.6556 19.0144 47.0642C18.5818 47.4732 18.0726 47.7977 17.4877 48.0379C16.9024 48.2786 16.2854 48.3986 15.6367 48.3986H6.74707V31.3243H15.2315C15.8972 31.3243 16.5015 31.4527 17.0419 31.7094C17.5823 31.9661 18.0414 32.2985 18.4196 32.7075C18.7979 33.1166 19.0905 33.5815 19.2976 34.1025C19.5047 34.6235 19.6082 35.1486 19.6082 35.6776C19.6082 36.5432 19.3605 37.3368 18.8655 38.0585C18.3695 38.7802 17.6986 39.3091 16.8523 39.6458C17.3927 39.7901 17.8835 40.0064 18.3246 40.2951C18.7662 40.5838 19.144 40.9204 19.4593 41.305C19.7742 41.6901 20.0134 42.1109 20.1756 42.5675C20.3378 43.024 20.4196 43.4932 20.4196 43.9742ZM7.28748 31.8053V39.549H15.0693C15.6641 39.549 16.2041 39.4371 16.6911 39.2124C17.1771 38.9881 17.596 38.6918 17.9473 38.3228C18.2986 37.9542 18.5728 37.5413 18.7714 37.0843C18.9695 36.6273 19.0688 36.1586 19.0688 35.6776C19.0688 35.1646 18.9742 34.6756 18.7846 34.2107C18.596 33.7461 18.334 33.3329 18.0012 32.9722C17.6679 32.6116 17.2622 32.3267 16.7856 32.1184C16.3076 31.9101 15.7899 31.8057 15.232 31.8057H7.28748V31.8053ZM19.8792 43.9742C19.8792 43.4612 19.7751 42.9681 19.5685 42.4951C19.3614 42.0221 19.0778 41.6013 18.7175 41.2327C18.3567 40.864 17.9293 40.5711 17.4338 40.3549C16.9383 40.1386 16.4022 40.0304 15.8263 40.0304H7.28748V47.9184H15.6367C16.2315 47.9184 16.7856 47.8065 17.2986 47.5818C17.8121 47.3575 18.2622 47.0608 18.6499 46.6918C19.0366 46.3232 19.3387 45.9023 19.5548 45.4294C19.7709 44.9564 19.8792 44.4712 19.8792 43.9742Z" fill="black"/>
<path d="M30.0924 36.3986C28.7591 36.4466 27.6107 36.8316 26.6476 37.5529C25.6835 38.2745 25.0126 39.2605 24.6344 40.5111V48.3992H24.0935V35.9176H24.6344V39.1401C25.1204 38.2586 25.7734 37.5331 26.5937 36.9637C27.4126 36.3948 28.2821 36.0619 29.2012 35.9656C29.3809 35.95 29.5478 35.9378 29.7014 35.9298C29.8541 35.9218 29.9851 35.9176 30.0929 35.9176V36.3986H30.0924Z" fill="black"/>
<path d="M35.9019 48.6397C35.2712 48.6397 34.6769 48.5396 34.119 48.3393C33.5602 48.139 33.0788 47.8667 32.6732 47.5216C32.268 47.177 31.9479 46.7722 31.7143 46.3072C31.4798 45.8426 31.363 45.3452 31.363 44.8163C31.363 44.2873 31.5025 43.8063 31.7819 43.3733C32.0609 42.9403 32.4576 42.5675 32.971 42.2548C33.4845 41.9422 34.0968 41.6981 34.8084 41.5214C35.5199 41.345 36.2986 41.2567 37.1454 41.2567C37.9563 41.2567 38.7756 41.3168 39.6045 41.4372C40.4328 41.5575 41.1803 41.7301 41.847 41.9544V40.5354C41.847 39.8945 41.7387 39.305 41.5226 38.7676C41.3065 38.2306 40.9959 37.7737 40.5903 37.397C40.1851 37.0204 39.6985 36.7275 39.1312 36.5192C38.5638 36.3109 37.9378 36.2066 37.2532 36.2066C36.5681 36.2066 35.8386 36.3387 35.0641 36.6034C34.2892 36.8681 33.5058 37.2489 32.7134 37.7459L32.389 37.3608C34.1904 36.271 35.8112 35.7256 37.2527 35.7256C38.0272 35.7256 38.734 35.8379 39.3737 36.0622C40.013 36.2869 40.5529 36.6072 40.995 37.0242C41.4361 37.4412 41.7784 37.9462 42.0219 38.5395C42.2649 39.1329 42.3864 39.7986 42.3864 40.5358V47.4371C42.3864 47.7581 42.5306 47.918 42.8186 47.918V48.399C42.62 48.399 42.4942 48.383 42.4403 48.3511C42.2597 48.2871 42.116 48.1705 42.0077 48.0022C41.8994 47.8339 41.8455 47.6454 41.8455 47.4371V46.2828C41.1973 47.0369 40.3501 47.6176 39.3057 48.0266C38.2617 48.4352 37.127 48.6397 35.9019 48.6397ZM35.9019 48.1587C37.109 48.1587 38.2125 47.9584 39.212 47.5574C40.212 47.1568 40.9553 46.6194 41.4413 45.9461C41.7117 45.6095 41.8465 45.2808 41.8465 44.9602V42.4829C40.4054 41.9863 38.838 41.7377 37.1449 41.7377C36.3521 41.7377 35.6362 41.8096 34.997 41.9539C34.3573 42.0983 33.8079 42.307 33.3488 42.5793C32.8892 42.8519 32.5332 43.1768 32.2817 43.5534C32.0292 43.9305 31.903 44.3513 31.903 44.8159C31.903 45.2808 32.0065 45.7176 32.2136 46.1262C32.4207 46.5353 32.7044 46.8921 33.0651 47.1964C33.4254 47.501 33.8486 47.7375 34.3351 47.9058C34.8216 48.0746 35.3436 48.1587 35.9019 48.1587Z" fill="black"/>
<path d="M57.654 48.3992H57.1131V41.4492C57.1131 39.6216 56.8294 38.291 56.262 37.457C55.6947 36.6238 54.7798 36.2063 53.5193 36.2063C52.8347 36.2063 52.1638 36.3145 51.5061 36.5308C50.848 36.7471 50.2404 37.0479 49.6825 37.4326C49.1237 37.8176 48.6376 38.2742 48.223 38.8035C47.8088 39.3325 47.5029 39.9018 47.3048 40.5112V48.3992H46.7639V35.9177H47.3048V39.1402C47.5923 38.6436 47.962 38.1824 48.4126 37.7574C48.8627 37.3328 49.3582 36.9722 49.8991 36.6751C50.4395 36.3784 51.0154 36.1461 51.6281 35.9778C52.2404 35.8095 52.8616 35.7253 53.4924 35.7253C54.9335 35.7253 55.9869 36.1865 56.654 37.1081C57.3202 38.0301 57.654 39.4768 57.654 41.4487V48.3992Z" fill="black"/>
<path d="M67.7593 48.6397C66.7863 48.6397 65.8856 48.4554 65.0572 48.0868C64.2284 47.7182 63.5121 47.2292 62.9088 46.6199C62.3055 46.0105 61.837 45.3212 61.5037 44.5516C61.1703 43.7819 61.0039 42.9967 61.0039 42.1946C61.0039 41.3286 61.1661 40.5072 61.49 39.7296C61.8143 38.9519 62.2687 38.2664 62.8545 37.6735C63.4398 37.0806 64.1287 36.6072 64.9216 36.2545C65.7144 35.9023 66.5787 35.7256 67.5153 35.7256C68.164 35.7256 68.7721 35.8097 69.3394 35.9781C69.9063 36.1464 70.4335 36.3711 70.92 36.6514C71.406 36.932 71.8429 37.2611 72.2301 37.6373C72.6174 38.0144 72.9549 38.4108 73.2438 38.8278V30.8434H73.7842V47.4371C73.7842 47.7581 73.9284 47.918 74.2169 47.918V48.399C74.0547 48.399 73.9369 48.383 73.8656 48.351C73.667 48.2711 73.5143 48.1465 73.406 47.9782C73.2977 47.8099 73.2438 47.6294 73.2438 47.4371V45.8018C72.9374 46.2188 72.5819 46.5997 72.1762 46.9443C71.771 47.2894 71.3294 47.5898 70.8524 47.8461C70.3749 48.1028 69.8751 48.2993 69.3527 48.4352C68.8312 48.5716 68.2997 48.6397 67.7593 48.6397ZM67.7593 48.1587C68.2997 48.1587 68.8851 48.0544 69.5158 47.8461C70.146 47.6378 70.7313 47.3613 71.2722 47.0162C71.8126 46.6716 72.267 46.2668 72.6367 45.8018C73.0055 45.3372 73.2084 44.8483 73.2448 44.3349V39.8377C73.0462 39.3412 72.7403 38.872 72.3261 38.431C71.9115 37.9904 71.4434 37.6057 70.9209 37.2767C70.3985 36.9484 69.8401 36.6875 69.2458 36.4952C68.651 36.3029 68.0742 36.2066 67.5163 36.2066C66.5981 36.2066 65.7735 36.3791 65.044 36.7237C64.314 37.0688 63.688 37.5216 63.1656 38.0825C62.6431 38.6439 62.2422 39.2848 61.9632 40.0065C61.6838 40.7277 61.5443 41.4578 61.5443 42.1951C61.5443 42.9807 61.7065 43.7302 62.0304 44.4434C62.3552 45.1571 62.7958 45.7904 63.3547 46.3434C63.9131 46.8963 64.5703 47.3377 65.3272 47.666C66.0842 47.9946 66.8946 48.1587 67.7593 48.1587Z" fill="black"/>
</symbol>


</svg>
