<svg width="80" height="80" viewBox="0 0 80 80" fill="none" xmlns="http://www.w3.org/2000/svg">
<rect x="0.5" y="0.5" width="79" height="79" fill="#C4C4C4"/>
<rect x="0.5" y="0.5" width="79" height="79" fill="white"/>
<rect x="0.5" y="0.5" width="79" height="79" stroke="#141414"/>
<path d="M18.9647 43.941C19.0552 43.9745 19.1114 44.037 19.1341 44.128C19.1563 44.2193 19.1626 44.2916 19.1525 44.3453C18.9173 44.6666 18.7538 44.8901 18.6624 45.0157C18.571 45.1413 18.506 45.2353 18.4675 45.2978C18.4289 45.3602 18.3857 45.4127 18.3387 45.4557C18.2909 45.4987 18.1861 45.5924 18.0235 45.7363C17.4013 46.1375 16.7574 46.5011 16.092 46.8258C15.4267 47.1509 14.7211 47.3922 13.9761 47.5506C13.8721 47.7036 13.66 47.8212 13.3388 47.9034C13.0177 47.9857 12.7213 48.0626 12.4505 48.1349C12.3901 48.1124 12.3544 48.0786 12.3435 48.0333C12.3322 47.9876 12.2962 47.9537 12.2362 47.9316C12.2329 48.0641 12.1733 48.1379 12.058 48.1528C11.9423 48.1676 11.7989 48.1513 11.6271 48.1037C11.4552 48.0561 11.2745 47.9895 11.0846 47.9034C10.8946 47.8174 10.7315 47.7398 10.594 47.6697C10.5303 47.7801 10.4628 47.8909 10.3924 48.0017C10.3215 48.1124 10.2297 48.192 10.1174 48.2396C9.95511 48.2243 9.83394 48.2129 9.75303 48.2053C9.67212 48.1977 9.59833 48.2293 9.53167 48.3005C9.44111 48.267 9.36816 48.2259 9.31324 48.1768C9.2579 48.1277 9.20298 48.0816 9.14806 48.0393C9.09314 47.9967 9.03193 47.9583 8.96317 47.9232C8.89442 47.8882 8.80093 47.862 8.6827 47.8437C8.70702 47.7892 8.68563 47.7078 8.61814 47.6C8.55064 47.4923 8.45756 47.4295 8.33934 47.4109C8.38923 47.3149 8.35443 47.2011 8.23369 47.0705C8.11295 46.94 8.01652 46.7911 7.94399 46.624C7.96034 46.4775 7.96873 46.3176 7.96873 46.1455C7.96831 45.9734 8.04712 45.8684 8.20476 45.8307C8.18254 45.7397 8.15403 45.6624 8.11923 45.5985C8.08444 45.5345 8.05006 45.471 8.01568 45.407C8.11001 45.321 8.17457 45.2205 8.20895 45.1055C8.24291 44.9906 8.2689 44.8729 8.28819 44.7523C8.30706 44.6316 8.33347 44.5109 8.36659 44.3891C8.40013 44.2677 8.47098 44.1634 8.58082 44.0762C8.67767 43.6719 8.75397 43.3719 8.81057 43.1759C8.86675 42.9799 8.9049 42.7884 8.92586 42.6015C8.9464 42.4146 8.97282 42.2139 9.00594 41.9996C9.03864 41.7857 9.10698 41.5158 9.21053 41.1903C9.17909 40.9939 9.18621 40.818 9.23107 40.6623C9.27593 40.507 9.32498 40.3513 9.37739 40.1949C9.42979 40.0388 9.47088 39.877 9.50023 39.7091C9.52957 39.5416 9.50568 39.3479 9.42854 39.1278C9.22646 39.1556 9.08685 39.2283 9.00971 39.346C8.93215 39.464 8.88687 39.6162 8.87346 39.8024C8.76613 39.9162 8.62904 39.9756 8.46176 39.9802C8.29448 39.9855 8.14732 40.0121 8.01987 40.0609C7.49666 39.9124 7.05351 39.6787 6.69087 39.3597C6.32822 39.0407 6.02595 38.6581 5.7832 38.2112C5.88801 37.8994 6.062 37.6322 6.30558 37.4095C6.54916 37.1872 6.83173 36.9949 7.15371 36.8332C7.47527 36.6714 7.82115 36.5347 8.19092 36.4224C8.5607 36.3105 8.91622 36.2028 9.25748 36.0992C9.8155 35.9675 10.3718 35.8221 10.9273 35.6637C11.4828 35.5054 12.0886 35.4232 12.7443 35.4171C12.8282 35.3714 12.9313 35.3413 13.0537 35.3257C13.1762 35.3105 13.3032 35.2983 13.4336 35.2892C13.564 35.28 13.6906 35.2678 13.8134 35.2526C13.9358 35.2374 14.0394 35.2069 14.1228 35.1613C14.2021 35.2351 14.3111 35.2774 14.4507 35.2873C14.5903 35.2975 14.7437 35.3497 14.9127 35.4437C15.0766 35.3131 15.2229 35.2762 15.352 35.3333C15.4808 35.3908 15.5994 35.4551 15.708 35.5271C15.8157 35.599 15.9201 35.6645 16.0199 35.7235C16.1197 35.7829 16.2203 35.8088 16.3222 35.8015C16.4333 35.9131 16.57 36.0162 16.7314 36.1106C16.8928 36.2054 17.0466 36.304 17.1942 36.406C17.3418 36.5084 17.468 36.6223 17.5736 36.7471C17.6793 36.8724 17.7392 37.0205 17.7539 37.1914C17.7451 37.2584 17.7702 37.2964 17.8294 37.3052C17.8885 37.3143 17.9338 37.3375 17.9665 37.3752C18.0155 37.7826 17.9769 38.1396 17.8499 38.4468C17.7229 38.7536 17.5577 39.0403 17.3544 39.306C17.1506 39.5721 16.9242 39.8264 16.6752 40.0692C16.4257 40.3121 16.2031 40.5664 16.0069 40.8317C16.1662 40.9931 16.3461 41.1328 16.5461 41.2512C16.7456 41.3696 16.9494 41.488 17.1565 41.6056C17.3636 41.7236 17.5602 41.8489 17.7463 41.9814C17.9329 42.1142 18.0918 42.2748 18.2251 42.4644C18.2562 42.4888 18.2947 42.5093 18.3396 42.5261C18.3849 42.5428 18.4301 42.563 18.4763 42.5859C18.5308 42.7145 18.6004 42.8455 18.6846 42.9787C18.7689 43.1119 18.8418 43.2395 18.9035 43.3609C18.9647 43.4827 19.007 43.592 19.0301 43.6898C19.0531 43.7853 19.0313 43.8699 18.9647 43.941ZM14.5735 37.6124C13.8319 37.6383 13.1003 37.7491 12.3804 37.9455C11.6602 38.1419 11.0648 38.389 10.5945 38.687C10.8565 38.8545 11.1206 39.0011 11.3872 39.1282C11.653 39.2554 11.8694 39.4389 12.0362 39.6787C12.5838 39.4286 13.0613 39.1267 13.4692 38.7734C13.8763 38.4198 14.2444 38.033 14.5735 37.6124ZM15.3931 43.8938C15.4254 43.7595 15.4958 43.6483 15.6057 43.5611C15.7147 43.474 15.8241 43.3902 15.9344 43.3095C16.0442 43.2292 16.139 43.1428 16.2186 43.051C16.2983 42.9593 16.3239 42.8348 16.2962 42.678C15.8128 42.4869 15.3772 42.3818 14.989 42.3624C14.6008 42.3434 14.2381 42.3689 13.9015 42.4389C13.5644 42.5093 13.2441 42.6015 12.9401 42.7153C12.6358 42.8295 12.3259 42.9174 12.0107 42.9791C11.8836 43.3723 11.7524 43.7991 11.6166 44.2585C11.4807 44.7188 11.3512 45.1649 11.2275 45.5973C11.6581 45.5144 12.0497 45.404 12.4031 45.2665C12.7561 45.1291 13.0973 44.9826 13.4273 44.8269C13.7568 44.6715 14.0788 44.5128 14.3937 44.3518C14.7072 44.1904 15.0405 44.0377 15.3931 43.8938Z" fill="black"/>
<path d="M24.7297 44.7082C24.6148 45.2461 24.5075 45.6546 24.4073 45.9332C24.3071 46.2119 24.1457 46.505 23.9243 46.8118C23.7336 46.7989 23.6044 46.8278 23.5378 46.8986C23.4707 46.9694 23.3961 47.0345 23.3135 47.0932C23.1852 47.1286 23.0909 47.135 23.0309 47.1129C22.9705 47.0905 22.9173 47.0646 22.8712 47.0349C22.8246 47.0048 22.7676 46.9759 22.6997 46.9477C22.6318 46.9196 22.5324 46.9097 22.4016 46.9192C22.3635 46.816 22.3224 46.7193 22.2784 46.6295C22.2339 46.54 22.1333 46.5138 21.9761 46.5515C21.9962 46.4441 21.9958 46.355 21.9753 46.2835C21.9547 46.2123 21.9308 46.1476 21.904 46.0897C21.8772 46.0318 21.8537 45.974 21.8344 45.9157C21.8147 45.8575 21.8155 45.7814 21.8369 45.687C21.764 45.6919 21.7023 45.65 21.6512 45.561C21.5996 45.4719 21.5409 45.3832 21.4751 45.2952C21.4986 45.055 21.5229 44.8282 21.5485 44.6142C21.574 44.4007 21.6114 44.1993 21.6612 44.0101C21.7107 43.8213 21.7493 43.6332 21.7774 43.4456C21.805 43.2583 21.7673 43.0687 21.6633 42.8772C21.7245 42.9126 21.7673 42.8997 21.7916 42.8384C21.8155 42.7771 21.8306 42.6964 21.8365 42.5967C21.8424 42.4969 21.8415 42.3976 21.8331 42.299C21.8247 42.2004 21.8105 42.1185 21.7904 42.0538C21.9061 41.7013 21.9958 41.3408 22.0591 40.9716C22.1224 40.6027 22.179 40.238 22.2285 39.8768C22.2775 39.5155 22.3316 39.1607 22.3895 38.8124C22.4473 38.4641 22.5362 38.1398 22.6569 37.8398C22.8142 37.8025 22.9932 37.8063 23.194 37.8516C23.3948 37.8969 23.521 37.9647 23.5722 38.0534C23.9264 37.7637 24.2329 37.4207 24.4911 37.0252C24.749 36.6297 25.0152 36.2433 25.2898 35.866C25.564 35.4892 25.8742 35.1492 26.2205 34.8466C26.5668 34.544 27.0204 34.3468 27.5818 34.2543C27.8887 34.4313 28.2283 34.6098 28.601 34.7887C28.9737 34.968 29.2902 35.2139 29.5502 35.5269C29.6705 35.5714 29.7732 35.6205 29.8583 35.6742C29.943 35.7278 30.0461 35.7834 30.1677 35.8413L30.1878 36.0781C30.3744 36.2109 30.5299 36.3689 30.6549 36.552C30.7798 36.7355 30.8951 36.9327 31.0008 37.1436C31.1064 37.3548 31.2121 37.5661 31.3173 37.777C31.4229 37.9883 31.5416 38.1885 31.6749 38.3777C31.6514 38.4458 31.6418 38.5026 31.646 38.5486C31.6497 38.5951 31.6648 38.6434 31.6913 38.6944C31.7177 38.7458 31.7399 38.7972 31.7592 38.8486C31.7776 38.9004 31.7839 38.9731 31.7776 39.0659C31.7835 39.6488 31.6166 40.1303 31.277 40.5121C30.9374 40.8935 30.5165 41.2183 30.0139 41.4851C29.5112 41.7523 28.9695 41.9857 28.3884 42.1855C27.8074 42.3854 27.2854 42.5944 26.8226 42.8121C26.8272 42.865 26.8544 42.8894 26.9056 42.886C26.9563 42.8826 26.9773 42.9141 26.9685 42.9808C27.3336 43.154 27.6221 43.2925 27.8355 43.3968C28.0484 43.5011 28.2488 43.5864 28.4371 43.6527C28.6249 43.7189 28.8266 43.7745 29.042 43.819C29.2571 43.8635 29.5569 43.9119 29.9409 43.9644C30.3245 44.017 30.6234 44.0588 30.8377 44.09C31.0519 44.1216 31.2477 44.1475 31.4242 44.1681C31.6007 44.1886 31.7806 44.2027 31.9638 44.2096C32.1466 44.2168 32.4056 44.2218 32.7419 44.2244C32.8823 44.3337 33.0068 44.4673 33.1154 44.6253C33.2236 44.7832 33.2991 44.9435 33.3422 45.1061C33.385 45.2686 33.406 45.4262 33.4047 45.5785C33.403 45.7311 33.3628 45.8564 33.2835 45.9546C33.3012 45.993 33.3351 46.0075 33.3854 45.9972C33.4357 45.9873 33.4902 45.9865 33.5498 45.9957C33.4672 46.0547 33.4001 46.1255 33.3489 46.2085C33.2978 46.2915 33.2462 46.3748 33.1951 46.4578C33.1435 46.5408 33.0844 46.6146 33.0169 46.679C32.949 46.7433 32.8509 46.7867 32.7218 46.8092C32.2853 46.9987 31.7206 47.0482 31.0272 46.958C30.3337 46.8674 29.4491 46.6744 28.3738 46.3794C27.8359 46.2321 27.3978 46.1004 27.0599 45.985C26.7219 45.8697 26.4272 45.7513 26.1761 45.6299C25.925 45.5084 25.6948 45.3756 25.4856 45.2313C25.2764 45.087 25.024 44.9131 24.7297 44.7082ZM27.2632 37.7146C27.1215 37.9365 26.9601 38.1402 26.779 38.3248C26.5978 38.5098 26.4239 38.6975 26.2578 38.8878C26.0914 39.0781 25.9451 39.2871 25.8189 39.5148C25.6923 39.742 25.6122 40.0032 25.5791 40.2967C26.0822 40.2087 26.6004 40.0431 27.1345 39.7999C27.6682 39.557 28.1734 39.3263 28.6513 39.1071C28.5582 38.7032 28.3742 38.3849 28.0992 38.1523C27.8241 37.9205 27.5453 37.774 27.2632 37.7146Z" fill="black"/>
<path d="M46.1579 43.6C46.09 43.8303 45.9823 44.0663 45.8355 44.308C45.6884 44.5505 45.5098 44.7683 45.3001 44.9617C45.0901 45.1554 44.8528 45.321 44.5874 45.4588C44.322 45.5966 44.0378 45.6826 43.7338 45.7173C43.5418 45.691 43.4114 45.6571 43.3423 45.6156C43.2731 45.5738 43.2006 45.5361 43.1247 45.5018C43.079 45.4786 43.0371 45.4584 42.9993 45.4413C42.9612 45.4242 42.9272 45.4101 42.897 45.3987L42.6279 45.3183L42.6929 45.0553C42.713 44.9479 42.6987 44.8661 42.6501 44.8101C42.6015 44.7538 42.5076 44.6781 42.3679 44.5814C42.321 44.5448 42.274 44.5083 42.2271 44.4721C42.1801 44.4356 42.1403 44.3986 42.1084 44.3613L41.7064 44.0119L42.282 43.8326C42.6367 43.715 42.8694 43.5794 42.9805 43.4256C43.0911 43.2722 43.1176 43.0256 43.0597 42.6849C42.765 42.6525 42.5218 42.6632 42.3294 42.7161C42.1369 42.7694 41.9412 42.8299 41.7429 42.8965C41.4875 42.981 41.2272 43.0553 40.9631 43.12C40.6985 43.1851 40.4067 43.2288 40.0877 43.2513C39.9715 43.2593 39.8625 43.2639 39.7607 43.2642C39.6584 43.265 39.5489 43.2627 39.432 43.2574L39.211 43.2334C39.1695 43.0907 39.1335 43.0103 39.1029 42.9924C39.0718 42.9749 39.0412 42.954 39.0098 42.9296C38.9314 42.8691 38.8476 42.7854 38.7587 42.6792C38.6694 42.5729 38.6392 42.4325 38.6681 42.2581C38.5855 42.1447 38.5314 42.0293 38.5071 41.9117C38.4338 42.0758 38.3826 42.2452 38.3533 42.4195L38.2832 42.6232L38.069 42.678C38.0409 42.6932 38.0216 42.7245 38.0116 42.7713C38.0007 42.8185 37.9969 42.8554 37.999 42.8817L37.9189 43.225C37.8921 43.2536 37.8648 43.2783 37.8376 43.3004C37.8103 43.3221 37.7831 43.3472 37.7567 43.3758C37.7374 43.4964 37.7114 43.6175 37.6779 43.7389C37.6443 43.8604 37.6108 43.9757 37.576 44.0838C37.5177 44.2601 37.4708 44.4325 37.4339 44.6004C37.397 44.769 37.3924 44.9312 37.4209 45.088L37.3525 45.3115C37.2863 45.3956 37.2121 45.4638 37.1291 45.5159C37.0461 45.5684 36.9626 45.6172 36.8792 45.6625C36.8524 45.691 36.8142 45.7165 36.7656 45.7401C36.7161 45.7637 36.678 45.7831 36.6503 45.798L36.6038 46.0199L36.3459 46.0778C36.1883 46.1151 36.078 46.1429 36.0139 46.1608C35.9497 46.1783 35.8743 46.1905 35.7871 46.1965L35.5678 46.192C35.398 46.0846 35.2668 45.9978 35.1737 45.9316C35.0806 45.8654 34.9729 45.8037 34.8513 45.7455C34.7075 45.5966 34.6249 45.4832 34.6035 45.4051C34.5826 45.3271 34.5616 45.2559 34.5415 45.1908C34.5059 45.1139 34.4824 45.0496 34.4702 44.9971C34.4585 44.9453 34.4371 44.9068 34.4057 44.8821L34.1025 44.6651L34.3268 44.4706L34.3201 44.1333C34.5532 43.4413 34.8064 42.7747 35.0798 42.1325C35.3531 41.4907 35.6366 40.8348 35.93 40.1652C36.0281 39.9467 36.1225 39.7278 36.2134 39.5093C36.3044 39.2912 36.3983 39.0723 36.4968 38.8534C36.4788 38.815 36.4675 38.7697 36.4633 38.7167C36.4587 38.6642 36.4683 38.6041 36.4918 38.5359C36.6323 38.3011 36.7455 38.0909 36.8322 37.9059C36.9182 37.7209 37.0046 37.5329 37.0905 37.3414C37.1873 37.1096 37.2884 36.8838 37.394 36.6646C37.4993 36.4453 37.6368 36.2169 37.8061 35.9797L38.1424 35.8172C38.1847 35.8012 38.2342 35.781 38.2904 35.757C38.3466 35.7331 38.4107 35.7186 38.4836 35.7136L38.8132 35.73C39.2047 35.5305 39.5397 35.2652 39.8177 34.9344C40.0961 34.6036 40.3757 34.2096 40.6578 33.7524L40.852 33.4604L41.1484 33.5986C41.2243 33.6333 41.3286 33.6622 41.4624 33.6858C41.5957 33.7094 41.7366 33.7361 41.885 33.7654C42.1508 33.7996 42.4019 33.8415 42.64 33.891C42.8773 33.9409 43.0744 34.0261 43.2308 34.1476C43.3356 34.3524 43.3997 34.5065 43.4236 34.6108C43.4471 34.7155 43.4777 34.8191 43.5158 34.9222C43.5783 35.1434 43.6374 35.3642 43.6928 35.5854C43.7481 35.8069 43.7946 36.0551 43.8332 36.3307C43.9246 36.5496 44.0051 36.7658 44.0743 36.9794C44.1435 37.1929 44.2093 37.4107 44.2722 37.6311C44.3715 37.9421 44.47 38.2432 44.5681 38.5344C44.6658 38.8256 44.7836 39.0989 44.9224 39.354C45.0385 39.346 45.1111 39.3475 45.1417 39.3586C45.2121 39.3273 45.2863 39.3022 45.3651 39.2832C45.4435 39.2649 45.5332 39.2451 45.6334 39.2246L45.8712 39.188L45.9751 39.3795C45.9948 39.4446 46.0732 39.5051 46.2095 39.5618C46.399 39.5618 46.5399 39.5881 46.6321 39.6414C46.7243 39.6943 46.809 39.7514 46.8874 39.8119C46.9499 39.8607 47.0111 39.8961 47.0715 39.9185L47.4081 40.0141L47.2593 40.3224C47.1343 40.5699 46.9469 40.8112 46.6975 41.0476C46.4476 41.2836 46.1621 41.4861 45.841 41.654C45.8619 41.732 45.8795 41.807 45.893 41.879C45.9064 41.9509 45.9307 42.0252 45.9667 42.1024C46.0296 42.3236 46.085 42.5512 46.1344 42.7861C46.1835 43.0214 46.2045 43.265 46.1969 43.517L46.1579 43.6ZM39.5796 40.6247C40.0122 40.568 40.4046 40.5105 40.7576 40.4522C41.1102 40.3944 41.5005 40.3106 41.929 40.201C41.7936 39.8131 41.6498 39.4092 41.4972 38.9893C41.3446 38.5698 41.1853 38.1537 41.0188 37.7411L40.9052 37.9478C40.6386 38.2447 40.3858 38.574 40.1468 38.9349C39.9074 39.2965 39.7066 39.6349 39.5439 39.9509C39.4668 40.0754 39.3901 40.2002 39.3129 40.3247C39.2358 40.4492 39.1662 40.5737 39.1041 40.697C39.1901 40.678 39.2727 40.6654 39.3527 40.6597C39.432 40.6547 39.5079 40.6429 39.5796 40.6247Z" fill="black"/>
<path d="M53.2251 41.1561C53.0968 41.1919 53.0083 41.2677 52.9601 41.3834C52.9115 41.4995 52.867 41.6183 52.8264 41.7405C52.7853 41.8627 52.7438 41.9746 52.7018 42.077C52.6591 42.1794 52.5874 42.2342 52.4859 42.2411C52.4805 42.3476 52.4482 42.4424 52.3899 42.5258C52.3312 42.6095 52.2763 42.6963 52.226 42.7858C52.1753 42.8756 52.1396 42.9708 52.1191 43.0717C52.0981 43.1726 52.1224 43.2868 52.192 43.4143C52.0826 43.5015 52.0197 43.6183 52.003 43.7653C51.9862 43.9122 51.9652 44.0527 51.9405 44.1867C51.9153 44.321 51.8634 44.4375 51.7841 44.5354C51.7049 44.634 51.5485 44.6846 51.3154 44.6876C51.2764 44.7432 51.2718 44.7771 51.302 44.7877C51.3322 44.7988 51.3577 44.8433 51.3791 44.9214C51.2169 44.9065 51.0982 44.9244 51.0223 44.9762C50.9465 45.0276 50.8513 45.0641 50.7364 45.0858C50.4539 45.026 50.2136 44.9038 50.0157 44.7192C49.8174 44.5346 49.6393 44.3252 49.4808 44.0911C49.3219 43.8574 49.1777 43.6191 49.0477 43.3762C48.9177 43.1337 48.7941 42.924 48.6767 42.7466C48.7077 42.5985 48.7031 42.4565 48.662 42.3202C48.6213 42.184 48.561 42.0724 48.4805 41.9852C49.0741 40.5661 49.7256 39.0495 50.4346 37.4362C51.1431 35.8233 51.8101 34.2333 52.4352 32.6657C52.7786 32.7608 53.1203 32.8728 53.4594 33.001C53.7986 33.1297 54.1105 33.2831 54.396 33.4617C54.6811 33.6402 54.9289 33.8515 55.1393 34.0951C55.3498 34.3387 55.4974 34.6166 55.5825 34.9284C55.5598 35.0095 55.5296 35.0414 55.4923 35.0243C55.4542 35.0072 55.4223 35.0194 55.3968 35.0608C55.4601 35.1229 55.4965 35.1663 55.5066 35.1922C55.5158 35.2184 55.5179 35.2443 55.5133 35.2714C55.5078 35.2984 55.5079 35.3349 55.5116 35.381C55.5154 35.4274 55.5426 35.4883 55.593 35.5641C55.5338 35.5553 55.4944 35.5645 55.4747 35.5923C55.4554 35.6204 55.4081 35.6239 55.3334 35.6022C55.4035 35.743 55.432 35.8603 55.4181 35.9539C55.4043 36.0475 55.3787 36.1324 55.3414 36.2078C55.3041 36.2836 55.2743 36.365 55.2525 36.4526C55.2307 36.5405 55.2475 36.6486 55.302 36.7769C55.2584 36.78 55.2265 36.7921 55.2064 36.8135C55.1863 36.8348 55.1699 36.8557 55.1569 36.8763C55.1439 36.8972 55.1276 36.9181 55.1075 36.9395C55.0873 36.9608 55.0551 36.9665 55.0106 36.9562C55.0785 37.2429 55.1179 37.5318 55.128 37.8222C55.1381 38.1131 55.1523 38.4066 55.1704 38.7035C55.1884 39.0004 55.2182 39.3095 55.2605 39.6312C55.302 39.9532 55.3817 40.2821 55.4978 40.6179C55.9963 40.3046 56.3828 39.9197 56.6578 39.4633C56.9324 39.0069 57.1446 38.5021 57.2947 37.9482C57.4443 37.3947 57.5437 36.8051 57.5928 36.1785C57.6414 35.5527 57.6963 34.9128 57.7575 34.2592C57.8778 34.1312 57.9671 33.9794 58.025 33.8031C58.0828 33.6269 58.1327 33.4411 58.1747 33.2462C58.2162 33.0513 58.2581 32.8564 58.3 32.6611C58.3415 32.4662 58.3994 32.2865 58.4727 32.1221C58.6924 32.1335 58.8828 32.1826 59.0433 32.2709C59.2039 32.3588 59.3544 32.4548 59.4944 32.5572C59.6345 32.66 59.7812 32.7559 59.9347 32.8442C60.0877 32.9329 60.2747 32.9828 60.4948 32.9938C60.688 33.2055 60.8658 33.4118 61.0289 33.612C61.1915 33.8126 61.3052 34.0296 61.3689 34.2637C61.3052 34.3745 61.2607 34.4971 61.236 34.6311C61.2108 34.7654 61.1823 34.8998 61.15 35.0346C61.1178 35.1693 61.07 35.2953 61.0071 35.4122C60.9438 35.5291 60.8507 35.6319 60.727 35.7198C60.7128 36.0654 60.6847 36.3818 60.644 36.6696C60.6029 36.9573 60.5614 37.2417 60.5199 37.5226C60.478 37.804 60.4482 38.094 60.4302 38.3936C60.4118 38.6928 60.4252 39.0198 60.47 39.3742C60.3795 39.6856 60.2843 40.0164 60.1828 40.3682C60.0814 40.7199 60.0063 41.0362 59.9573 41.3179C59.7397 41.5056 59.5758 41.7222 59.4655 41.9685C59.3553 42.2148 59.2374 42.4615 59.1125 42.7085C59.0588 42.7652 59.0236 42.7812 59.0073 42.7557C58.9905 42.7306 58.9381 42.7142 58.8501 42.707C58.8689 42.7588 58.8723 42.7984 58.8601 42.8258C58.8476 42.8532 58.8316 42.8775 58.8115 42.8989C58.7914 42.9202 58.7792 42.9506 58.7754 42.9906C58.7712 43.0306 58.7868 43.0827 58.8216 43.1463C58.6249 43.2396 58.4535 43.3644 58.3063 43.5205C58.1587 43.6766 57.9998 43.8201 57.8288 43.9514C57.6573 44.0827 57.4464 44.1771 57.1961 44.2342C56.9454 44.2917 56.6117 44.2689 56.1946 44.1657C55.5661 43.8125 55.0018 43.3949 54.5012 42.9133C54.0011 42.4333 53.5751 41.8471 53.2251 41.1561Z" fill="black"/>
<path d="M73.2529 38.0004C73.2441 38.0674 73.234 38.1245 73.224 38.1713C73.2131 38.2185 73.2022 38.2623 73.1913 38.3026C73.18 38.3434 73.177 38.3932 73.1821 38.4522C73.1871 38.5116 73.1934 38.5874 73.2013 38.6795C72.8257 39.4085 72.3281 40.0324 71.7084 40.5528C71.0888 41.0732 70.3995 41.5425 69.6399 41.9601C68.8802 42.3777 68.0853 42.7649 67.2548 43.1212C66.4243 43.4775 65.6176 43.8555 64.8349 44.2548C64.4802 44.2004 64.2039 44.0873 64.0073 43.9156C63.8103 43.7439 63.6543 43.5399 63.5394 43.3027C63.4241 43.066 63.3361 42.8003 63.2745 42.5068C63.2128 42.2133 63.1541 41.9091 63.0984 41.5951C63.1298 41.4474 63.181 41.321 63.2523 41.2167C63.3235 41.1124 63.3512 40.9681 63.3357 40.7835C63.4225 40.4332 63.5097 40.0891 63.5981 39.7515C63.6862 39.4142 63.7298 39.0735 63.7298 38.7286C63.7646 38.6205 63.8375 38.5421 63.9507 38.4945C63.9692 37.8572 63.9184 37.2151 63.7973 36.5679C63.6765 35.9204 63.5051 35.3201 63.2824 34.7658C63.2858 34.6333 63.2959 34.5363 63.3122 34.4754C63.3286 34.4145 63.3218 34.3722 63.2904 34.3478C63.2665 34.2435 63.3021 34.188 63.3965 34.1815C63.4908 34.175 63.5885 34.1682 63.6904 34.1609C63.6736 33.9634 63.6166 33.7688 63.5201 33.5766C63.4233 33.3848 63.3281 33.1662 63.2346 32.9211C63.3193 32.7163 63.368 32.5176 63.381 32.3246C63.3935 32.1316 63.4447 31.9591 63.534 31.8073C64.3364 31.9763 65.1099 32.1933 65.8545 32.459C66.5991 32.7247 67.3261 32.9055 68.0346 33.0014C68.5859 33.3071 69.151 33.6086 69.7313 33.9055C70.3107 34.2024 70.8427 34.5363 71.3265 34.9063C71.8103 35.2767 72.2262 35.7076 72.575 36.1998C72.923 36.6924 73.1489 37.2923 73.2529 38.0004ZM68.1897 39.4492C68.4853 39.3225 68.7766 39.1896 69.0638 39.0499C69.3506 38.9106 69.6147 38.7564 69.8558 38.587C70.0964 38.418 70.3098 38.2273 70.4964 38.0156C70.6825 37.804 70.8293 37.555 70.9362 37.2695C70.8356 37.1176 70.7073 36.9844 70.5517 36.869C70.3962 36.7541 70.2406 36.646 70.0864 36.5439C69.9317 36.4427 69.7803 36.3369 69.6327 36.228C69.4847 36.1191 69.3602 35.9821 69.2584 35.8172C69.0676 35.8043 68.8965 35.7666 68.7452 35.7042C68.5939 35.6421 68.4463 35.5797 68.3025 35.5169C68.1583 35.4541 68.0077 35.3955 67.8497 35.3399C67.6916 35.2847 67.5105 35.2576 67.3068 35.2588C66.9751 35.1366 66.6796 35.0513 66.4205 35.0034C66.161 34.9554 65.9618 34.8835 65.8222 34.7871C65.7208 34.7944 65.6424 34.8195 65.5879 34.8633C65.7753 35.3536 65.9241 35.8165 66.0344 36.2527C66.1442 36.689 66.2218 37.1271 66.267 37.5679C66.3115 38.0088 66.3245 38.4614 66.306 38.9266C66.2872 39.3917 66.2499 39.8976 66.1949 40.4447C66.3387 40.4214 66.4704 40.3822 66.5899 40.3274C66.7089 40.273 66.828 40.2147 66.9471 40.1535C67.0657 40.0922 67.1919 40.0339 67.3261 39.978C67.4598 39.9224 67.6204 39.8813 67.8082 39.8546C67.8451 39.7724 67.9008 39.7027 67.9763 39.6441C68.0518 39.5851 68.1226 39.5204 68.1897 39.4492Z" fill="black"/>
</svg>
